<?xml version="1.0" encoding="UTF-8"?>
<svg width="26px" height="32px" viewBox="0 0 26 32" version="1.1" xmlns="http://www.w3.org/2000/svg" xmlns:xlink="http://www.w3.org/1999/xlink">
    <title>icon_other_ways</title>
    <g id="+-GCS-Main-Nav" stroke="none" stroke-width="1" fill="none" fill-rule="evenodd">
        <g id="B2B---GlobalNav---Header---Help-Opened---v3" transform="translate(-137.000000, -563.000000)" fill-rule="nonzero">
            <g id="Elements-/-Dropdown-/-Header_v3" transform="translate(0.000000, 131.000000)">
                <g id="Group" transform="translate(134.000000, 50.000000)">
                    <g id="Icons-/-fa5-icon-28" transform="translate(0.000000, 382.000000)">
                        <path d="M6.67009352,7.86250394 C7.02377341,7.86250394 7.31048761,7.57348688 7.31048761,7.21696626 C7.31048761,6.86044564 7.02377341,6.57142857 6.67009352,6.57142857 L3.89505247,6.57142857 C3.54137258,6.57142857 3.25465839,6.86044564 3.25465839,7.21696626 L3.25465839,31.3544623 C3.25465839,31.7109829 3.54137258,32 3.89505247,32 L21.1856929,32 C21.5393728,32 21.826087,31.7109829 21.826087,31.3544623 L21.826087,28.5648173 C21.826087,28.2082967 21.5393728,27.9192796 21.1856929,27.9192796 C20.832013,27.9192796 20.5452988,28.2082967 20.5452988,28.5648173 L20.5452988,30.7089246 L4.53544656,30.7089246 L4.53544656,7.86250394 L6.67009352,7.86250394 Z" id="Path" fill="#333E48"></path>
                        <path d="M9.82608696,5.29493609 C10.1811272,5.29493609 10.4689441,5.00505478 10.4689441,4.64746805 C10.4689441,4.28988132 10.1811272,4 9.82608696,4 L7.04037267,4 C6.68533247,4 6.39751553,4.28988132 6.39751553,4.64746805 L6.39751553,28.2096748 C6.39751553,28.5672615 6.68533247,28.8571429 7.04037267,28.8571429 L23.7546584,28.8571429 C24.1096986,28.8571429 24.3975155,28.5672615 24.3975155,28.2096748 L24.3975155,25.4046502 C24.3975155,25.0470635 24.1096986,24.7571821 23.7546584,24.7571821 C23.3996182,24.7571821 23.1118012,25.0470635 23.1118012,25.4046502 L23.1118012,27.5622068 L7.68322981,27.5622068 L7.68322981,5.29493609 L9.82608696,5.29493609 Z" id="Path" fill="#0093C9"></path>
                        <g id="Group-2" transform="translate(9.777262, 0.066338)">
                            <path d="M11.5072333,4.0602442e-15 C11.6597363,4.0602442e-15 11.8066315,0.0538275189 11.9222783,0.15086186 L11.9641311,0.189254314 L18.4822142,6.7216537 C18.5886093,6.82828247 18.6535028,6.96826008 18.6666101,7.11675649 L18.6690778,7.17279347 L18.6690778,24.5925252 C18.6690778,24.9314684 18.4043741,25.2089101 18.0693923,25.2314418 L18.0253165,25.2329193 L0.643761302,25.2329193 C0.3030359,25.2329193 0.0241353505,24.9696001 0.00148517522,24.6363705 L4.0602442e-14,24.5925252 L4.0602442e-14,0.640394089 C4.0602442e-14,0.301450862 0.264703658,0.0240091098 0.599685452,0.00147740696 L0.643761302,4.0602442e-15 L11.5072333,4.0602442e-15 Z" id="Path" fill="#333E48"></path>
                            <polygon id="Path" fill="#FFFFFF" points="11.239175 1.28078818 1.2875226 1.28078818 1.2875226 23.9521311 17.3815552 23.9521311 17.3815552 7.43665931"></polygon>
                            <path d="M12.2163123,6.44124931 L12.2163123,0.899304191 C12.2163123,0.543764641 11.9295981,0.255542889 11.5759182,0.255542889 C11.2222383,0.255542889 10.9355241,0.543764641 10.9355241,0.899304191 L10.9355241,7.08501061 C10.9355241,7.44055016 11.2222383,7.72877192 11.5759182,7.72877192 L17.6601534,7.72877192 C18.0138333,7.72877192 18.3005475,7.44055016 18.3005475,7.08501061 C18.3005475,6.72947106 18.0138333,6.44124931 17.6601534,6.44124931 L12.2163123,6.44124931 Z" id="Path" fill="#333E48"></path>
                        </g>
                    </g>
                </g>
            </g>
        </g>
    </g>
</svg>