<?xml version="1.0" encoding="UTF-8"?>
<svg width="55px" height="55px" viewBox="0 0 55 55" version="1.1" xmlns="http://www.w3.org/2000/svg" xmlns:xlink="http://www.w3.org/1999/xlink">
    <title>personal_finance_edu</title>
    <defs>
        <path d="M27.3334,10 C28.0476,10 28.632,10.597 28.632,11.327 L28.632,13.874 C31.8525,14.418 34.4498,17.004 35.0211,20.387 C35.138,21.117 34.6575,21.793 33.9563,21.926 C33.242,22.046 32.5798,21.555 32.4499,20.838 C32.0214,18.278 29.8786,16.407 27.3334,16.407 C24.3206,16.407 22.1389,18.411 22.1389,21.17 C22.1389,23.491 23.9829,25.097 27.6191,25.959 C33.8134,27.405 35.125,30.761 35.125,33.322 C35.125,37.129 32.4109,40.087 28.632,40.631 L28.632,43.165 C28.632,43.895 28.0476,44.492 27.3334,44.492 C26.6191,44.492 26.0348,43.895 26.0348,43.165 L26.0348,40.618 C22.3467,39.994 19.5417,36.718 19.5417,32.778 C19.5417,32.048 20.1131,31.451 20.8403,31.451 C21.5545,31.451 22.1389,32.048 22.1389,32.778 C22.1389,35.696 24.4634,38.084 27.3334,38.084 C30.3332,38.084 32.5278,36.081 32.5278,33.322 C32.5278,31 30.6838,29.395 27.0347,28.533 C20.8403,27.087 19.5417,23.73 19.5417,21.17 C19.5417,17.363 22.2558,14.404 26.0348,13.86 L26.0348,11.327 C26.0348,10.597 26.6191,10 27.3334,10 Z" id="path-1"></path>
    </defs>
    <g id="personal_finance_edu" stroke="none" stroke-width="1" fill="none" fill-rule="evenodd">
        <g id="Group">
            <path d="M27.0417,0 C41.9532,0 54.0834,12.336 54.0834,27.5 C54.0834,42.664 41.9532,55 27.0417,55 C12.1302,55 0,42.664 0,27.5 C0,12.336 12.1302,0 27.0417,0 Z M27.0417,2.619 C13.5466,2.619 2.5754,13.776 2.5754,27.5 C2.5754,41.224 13.5466,52.381 27.0417,52.381 C40.5368,52.381 51.508,41.224 51.508,27.5 C51.508,13.776 40.5368,2.619 27.0417,2.619 Z" id="Clip-271" fill="#333D47"></path>
            <mask id="mask-2" fill="white">
                <use xlink:href="#path-1"></use>
            </mask>
            <use id="Clip-274" fill="#3FAE29" xlink:href="#path-1"></use>
        </g>
        <rect id="Rectangle" x="0" y="0" width="55" height="55"></rect>
    </g>
</svg>