<?xml version="1.0" encoding="UTF-8"?>
<svg id="Layer_1" xmlns="http://www.w3.org/2000/svg" version="1.1" viewBox="0 0 55 55">
  <!-- Generator: Adobe Illustrator 29.0.0, SVG Export Plug-In . SVG Version: 2.1.0 Build 186)  -->
  <defs>
    <style>
      .st0, .st1, .st2, .st3 {
        fill: none;
      }

      .st1, .st4, .st2 {
        stroke: #333e48;
      }

      .st1, .st4, .st2, .st3 {
        stroke-miterlimit: 10;
        stroke-width: 2px;
      }

      .st4 {
        fill: #fff;
      }

      .st4, .st2 {
        stroke-linecap: round;
      }

      .st3 {
        stroke: #0091c7;
      }
    </style>
  </defs>
  <g id="credit_scores_edu">
    <rect id="Rectangle" class="st0" width="55" height="55"/>
  </g>
  <g>
    <g>
      <path class="st3" d="M24.1,28.3c-.2,0-.4,0-.6-.2-.4-.2-.7-.7-.7-1.2v-12c0-.5.3-.9.7-1.2.2-.1.4-.2.7-.2s.5,0,.7.2l9.7,5.9c.4.2.6.7.6,1.1s-.2.9-.6,1.1l-9.7,6.1c-.2.1-.5.2-.7.2Z"/>
      <rect class="st1" x="1.4" y="4.4" width="52.3" height="33.3" rx="4.2" ry="4.2"/>
    </g>
    <line class="st2" x1="2.2" y1="47.8" x2="52.8" y2="47.8"/>
    <circle class="st4" cx="27.5" cy="47.6" r="4.1"/>
  </g>
</svg>