<?xml version="1.0" encoding="UTF-8"?>
<svg width="55px" height="55px" viewBox="0 0 55 55" version="1.1" xmlns="http://www.w3.org/2000/svg" xmlns:xlink="http://www.w3.org/1999/xlink">
    <title>debt_management_edu</title>
    <g id="debt_management_edu" stroke="none" stroke-width="1" fill="none" fill-rule="evenodd">
        <g id="Group" transform="translate(6.383929, 0.000000)">
            <path d="M33.1723017,40.5387931 C33.7062759,40.5387931 34.137931,41.0157759 34.137931,41.6056034 C34.137931,42.195431 33.7062759,42.6724138 33.1723017,42.6724138 L9.50011207,42.6724138 C8.96708621,42.6724138 8.53448276,42.195431 8.53448276,41.6056034 C8.53448276,41.0157759 8.96708621,40.5387931 9.50011207,40.5387931 L33.1723017,40.5387931 Z M33.1723017,34.137931 C33.7062759,34.137931 34.137931,34.6149138 34.137931,35.2047414 C34.137931,35.794569 33.7062759,36.2715517 33.1723017,36.2715517 L9.50011207,36.2715517 C8.96708621,36.2715517 8.53448276,35.794569 8.53448276,35.2047414 C8.53448276,34.6149138 8.96708621,34.137931 9.50011207,34.137931 L33.1723017,34.137931 Z" id="Clip-122" fill="#3FAE29"></path>
            <path d="M41.7026121,0 C42.2360172,0 42.6724138,0.441896552 42.6724138,0.982413793 L42.6724138,0.982413793 L42.6724138,54.0156897 C42.6724138,54.3788793 42.4784914,54.7126724 42.1584483,54.879569 C41.8480776,55.0568966 41.4601379,55.0369828 41.1692069,54.8302586 L41.1692069,54.8302586 L35.8836121,51.2656897 L30.5980172,54.8302586 C30.2779741,55.0568966 29.85125,55.0568966 29.5312069,54.8302586 L29.5312069,54.8302586 L24.2457069,51.2656897 L18.9601121,54.8302586 C18.640069,55.0568966 18.2133448,55.0568966 17.8933017,54.8302586 L17.8933017,54.8302586 L12.6078017,51.2751724 L7.42888793,54.8302586 C7.26398276,54.9393103 7.07006034,54.9971552 6.88581034,54.9971552 C6.64333621,54.9971552 6.39118966,54.900431 6.20693966,54.7126724 L6.20693966,54.7126724 L0.290931034,48.8200862 C0.106681034,48.6437069 0,48.3876724 0,48.1231034 L0,48.1231034 L0,0.982413793 C0,0.441896552 0.436396552,0 0.969801724,0 L0.969801724,0 L41.7026121,0 Z M40.7327155,1.96387931 L1.93969828,1.96387931 L1.93969828,47.7106034 L7.00216379,52.7487931 L12.0646293,49.2714655 C12.3846724,49.0562069 12.8211638,49.0467241 13.1412069,49.2714655 L13.1412069,49.2714655 L18.4267069,52.8369828 L23.7123017,49.2714655 C23.8674397,49.1643103 24.0614569,49.104569 24.2457069,49.104569 C24.4299569,49.104569 24.6238793,49.1643103 24.7791121,49.2714655 L24.7791121,49.2714655 L30.0646121,52.8369828 L35.3502069,49.2714655 C35.67025,49.0467241 36.0969741,49.0467241 36.4170172,49.2714655 L36.4170172,49.2714655 L40.7327155,52.1788793 L40.7327155,1.96387931 Z" id="Clip-125" fill="#333D47"></path>
            <path d="M21.8103448,8.53448276 C22.3414741,8.53448276 22.7759741,8.96594828 22.7759741,9.49413793 L22.7759741,10.5211207 C24.6590603,10.9146552 26.1461466,12.4214655 26.4648621,14.3692241 C26.5420517,14.887931 26.1847414,15.3867241 25.6632845,15.4635345 C25.1225776,15.5498276 24.6397155,15.1951724 24.5528534,14.6764655 C24.3306724,13.3232759 23.1912241,12.3351724 21.8103448,12.3351724 L21.8006724,12.3351724 C20.4101207,12.3351724 19.000319,13.1023276 19.000319,14.8206034 C19.000319,15.5887069 19.3189397,16.682069 22.032431,17.3344828 C22.0903707,17.3449138 22.1483103,17.3638793 22.1965776,17.3828448 C25.0829397,18.1025862 26.5517241,19.5610345 26.5517241,21.7212069 C26.5517241,24.0236207 24.958431,25.9533621 22.7759741,26.4531034 L22.7759741,27.4886207 C22.7759741,28.0262931 22.3414741,28.4482759 21.8103448,28.4482759 C21.2792155,28.4482759 20.8447155,28.0262931 20.8447155,27.4886207 L20.8447155,26.4711207 C18.6816034,26.0206897 17.0689655,24.1298276 17.0689655,21.8643966 C17.0689655,21.3371552 17.5034655,20.9047414 18.0345948,20.9047414 C18.5753966,20.9047414 19.000319,21.3371552 19.000319,21.8643966 C19.000319,23.4100862 20.265319,24.657069 21.8103448,24.657069 C23.3650431,24.6001724 24.6203707,23.3038793 24.6203707,21.7212069 C24.6203707,20.9436207 24.30175,19.8493103 21.5882586,19.1968966 C21.530319,19.1874138 21.4820517,19.1675 21.4241121,19.1485345 C18.5368017,18.4287931 17.0689655,16.9703448 17.0689655,14.8206034 C17.0689655,12.5750862 18.6139914,10.8757759 20.8447155,10.5021552 L20.8447155,9.49413793 C20.8447155,8.96594828 21.2792155,8.53448276 21.8103448,8.53448276 Z" id="Clip-128" fill="#3FAE29"></path>
        </g>
        <rect id="Rectangle" x="0" y="0" width="55" height="55"></rect>
    </g>
</svg>