<?xml version="1.0" encoding="UTF-8"?>
<svg width="55px" height="55px" viewBox="0 0 55 55" version="1.1" xmlns="http://www.w3.org/2000/svg" xmlns:xlink="http://www.w3.org/1999/xlink">
    <title>credit_scores_edu</title>
    <g id="credit_scores_edu" stroke="none" stroke-width="1" fill="none" fill-rule="evenodd">
        <g id="Group" fill-rule="nonzero">
            <g id="Group-6" transform="translate(0.491071, 11.294643)">
                <path d="M54.4891996,27.8884634 C54.5239784,28.4996165 54.0567346,29.0232478 53.4455815,29.0580265 C52.8344284,29.0928053 52.3107971,28.6255616 52.2760183,28.0144085 C51.9837185,22.8779436 50.3207653,18.1706077 47.6567341,14.2958298 L49.3301201,12.8198068 C52.3084054,17.0641178 54.1678528,22.2415689 54.4891996,27.8884634 Z M27.8096711,1.51066667 C35.1529498,1.51066667 41.7145815,4.50971955 46.4989112,9.40665016 L44.8328453,10.8743749 C40.4536714,6.43521524 34.4811207,3.72742857 27.8096711,3.72742857 C14.554634,3.72742857 4.08968357,14.3118046 3.34347369,28.0117181 C3.31018076,28.622954 2.78768694,29.0914693 2.17645107,29.0581764 C1.56521521,29.0248834 1.09669989,28.5023896 1.12999282,27.8911537 C1.93856762,13.046262 13.3440047,1.51066667 27.8096711,1.51066667 Z" id="Combined-Shape" fill="#333E48"></path>
                <g id="Group-9-Copy" fill="#333E48">
                    <path d="M4.45010218,28.0718686 C4.38358904,29.2943443 3.33865712,30.2314371 2.11618143,30.164924 C0.893705746,30.0984108 -0.0433870454,29.0534789 0.0231261036,27.8310032 C0.861941387,12.4140322 12.7251504,0.402285714 27.781545,0.402285714 C35.1501634,0.402285714 41.9136703,3.28538039 47.0021013,8.38838165 C46.5069938,9.17257418 46.1266121,9.82099549 45.8609561,10.3336456 C44.8325721,11.4284875 44.1664693,11.8235627 43.8626479,11.5188713 C39.5955403,7.23954527 33.9565707,4.83580952 27.781545,4.83580952 C15.1475953,4.83580952 5.16436882,14.9440344 4.45010218,28.0718686 Z" id="Stroke-1"></path>
                </g>
                <path d="M31.4710286,24.6190476 C31.0117807,25.023781 30.3113856,24.9795882 29.9066522,24.5203403 C29.5019189,24.0610924 29.5461117,23.3606972 30.0053596,22.9559639 L49.416647,6.2294105 C49.8758949,5.82467717 50.5762901,5.86886996 50.9810234,6.32811786 C51.3857568,6.78736576 51.341564,7.48776093 50.8823161,7.89249426 L31.4710286,24.6190476 Z M28.3466142,31.4893333 C25.7515086,31.4893333 23.6504196,29.3758093 23.6504196,26.7719048 C23.6504196,24.1680002 25.7515086,22.0544762 28.3466142,22.0544762 C30.9417197,22.0544762 33.0428088,24.1680002 33.0428088,26.7719048 C33.0428088,29.3758093 30.9417197,31.4893333 28.3466142,31.4893333 Z M28.3466142,29.2725714 C29.7144981,29.2725714 30.8260469,28.1544442 30.8260469,26.7719048 C30.8260469,25.3893654 29.7144981,24.2712381 28.3466142,24.2712381 C26.9787302,24.2712381 25.8671815,25.3893654 25.8671815,26.7719048 C25.8671815,28.1544442 26.9787302,29.2725714 28.3466142,29.2725714 Z" id="Combined-Shape" fill="#0093C9"></path>
            </g>
        </g>
        <rect id="Rectangle" x="0" y="0" width="55" height="55"></rect>
    </g>
</svg>