<?xml version="1.0" encoding="UTF-8"?>
<svg width="55px" height="55px" viewBox="0 0 55 55" version="1.1" xmlns="http://www.w3.org/2000/svg" xmlns:xlink="http://www.w3.org/1999/xlink">
    <title>life_stages_edu</title>
    <g id="life_stages_edu" stroke="none" stroke-width="1" fill="none" fill-rule="evenodd">
        <g id="illustrations/protected_consumer_minor" transform="translate(12.276786, 0.000000)">
            <path d="M21.4225,15.362069 C23.5954317,15.362069 25.355,17.1292952 25.355,19.3068966 L25.355,32.5827586 C25.355,34.7603599 23.5954317,36.5275862 21.4225,36.5275862 L19.69,36.5275862 L19.69,47.7551724 C19.69,49.9327737 17.9304317,51.7 15.7575,51.7 L10.0925,51.7 C7.91956829,51.7 6.16,49.9327737 6.16,47.7551724 L6.16,36.5275862 L4.4275,36.5275862 C2.25456829,36.5275862 0.495,34.7603599 0.495,32.5827586 L0.495,19.3068966 C0.495,17.1292952 2.25456829,15.362069 4.4275,15.362069 L21.4225,15.362069 Z M21.4225,17.562069 L4.4275,17.562069 C3.4717386,17.562069 2.695,18.3421881 2.695,19.3068966 L2.695,32.5827586 C2.695,33.5474671 3.4717386,34.3275862 4.4275,34.3275862 L7.26,34.3275862 C7.86751322,34.3275862 8.36,34.820073 8.36,35.4275862 L8.36,47.7551724 C8.36,48.7198809 9.1367386,49.5 10.0925,49.5 L15.7575,49.5 C16.7132614,49.5 17.49,48.7198809 17.49,47.7551724 L17.49,35.4275862 C17.49,34.820073 17.9824868,34.3275862 18.59,34.3275862 L21.4225,34.3275862 C22.3782614,34.3275862 23.155,33.5474671 23.155,32.5827586 L23.155,19.3068966 C23.155,18.3421881 22.3782614,17.562069 21.4225,17.562069 Z M12.925,0.493103448 C16.6622783,0.493103448 19.69,3.53400241 19.69,7.28275862 C19.69,11.0315148 16.6622783,14.0724138 12.925,14.0724138 C9.18772173,14.0724138 6.16,11.0315148 6.16,7.28275862 C6.16,3.53400241 9.18772173,0.493103448 12.925,0.493103448 Z M12.925,2.69310345 C10.4048921,2.69310345 8.36,4.74689526 8.36,7.28275862 C8.36,9.81862198 10.4048921,11.8724138 12.925,11.8724138 C15.4451079,11.8724138 17.49,9.81862198 17.49,7.28275862 C17.49,4.74689526 15.4451079,2.69310345 12.925,2.69310345 Z" id="Combined-Shape" fill="#333E48" fill-rule="nonzero"></path>
            <path d="M27.4822581,31.9 L16.5177419,31.9 C15.9011217,31.9 15.4,32.3970712 15.4,33.0117577 L15.4,41.4707838 C15.4,42.0854704 15.9011217,42.5825416 16.5177419,42.5825416 L18.3451613,42.5825416 C18.7371053,42.5825416 19.0548387,42.896341 19.0548387,43.2834323 L19.0548387,51.1382423 C19.0548387,51.7529288 19.5559604,52.25 20.1725806,52.25 L23.8274194,52.25 C24.4440396,52.25 24.9451613,51.7529288 24.9451613,51.1382423 L24.9451613,43.2834323 C24.9451613,42.896341 25.2628947,42.5825416 25.6548387,42.5825416 L27.4822581,42.5825416 C28.0988783,42.5825416 28.6,42.0854704 28.6,41.4707838 L28.6,33.0117577 C28.6,32.3970712 28.0988783,31.9 27.4822581,31.9 Z" id="Path" fill="#FFFFFF"></path>
            <path d="M22.275,28.6 C23.9449511,28.6 25.3,27.2463645 25.3,25.575 C25.3,23.9036355 23.9449511,22.55 22.275,22.55 C20.6050489,22.55 19.25,23.9036355 19.25,25.575 C19.25,27.2463645 20.6050489,28.6 22.275,28.6 Z" id="Path" fill="#FFFFFF" fill-rule="nonzero"></path>
            <path d="M27.4822581,31.9 L16.5177419,31.9 C15.9011217,31.9 15.4,32.3970712 15.4,33.0117577 L15.4,41.4707838 C15.4,42.0854704 15.9011217,42.5825416 16.5177419,42.5825416 L18.3451613,42.5825416 C18.7371053,42.5825416 19.0548387,42.896341 19.0548387,43.2834323 L19.0548387,51.1382423 C19.0548387,51.7529288 19.5559604,52.25 20.1725806,52.25 L23.8274194,52.25 C24.4440396,52.25 24.9451613,51.7529288 24.9451613,51.1382423 L24.9451613,43.2834323 C24.9451613,42.896341 25.2628947,42.5825416 25.6548387,42.5825416 L27.4822581,42.5825416 C28.0988783,42.5825416 28.6,42.0854704 28.6,41.4707838 L28.6,33.0117577 C28.6,32.3970712 28.0988783,31.9 27.4822581,31.9 Z M27.1451613,44.7825416 L27.1451613,51.1382423 C27.1451613,52.9705559 25.6564895,54.45 23.8274194,54.45 L20.1725806,54.45 C18.3435105,54.45 16.8548387,52.9705559 16.8548387,51.1382423 L16.8548387,44.7825416 L16.5177419,44.7825416 C14.6886718,44.7825416 13.2,43.3030975 13.2,41.4707838 L13.2,33.0117577 C13.2,31.1794441 14.6886718,29.7 16.5177419,29.7 L27.4822581,29.7 C29.3113282,29.7 30.8,31.1794441 30.8,33.0117577 L30.8,41.4707838 C30.8,43.3030975 29.3113282,44.7825416 27.4822581,44.7825416 L27.1451613,44.7825416 Z" id="Shape" fill="#0093C9" fill-rule="nonzero"></path>
            <path d="M22.275,28.6 C23.9449511,28.6 25.3,27.2463645 25.3,25.575 C25.3,23.9036355 23.9449511,22.55 22.275,22.55 C20.6050489,22.55 19.25,23.9036355 19.25,25.575 C19.25,27.2463645 20.6050489,28.6 22.275,28.6 Z M22.275,30.8 C19.3896932,30.8 17.05,28.4610618 17.05,25.575 C17.05,22.6889382 19.3896932,20.35 22.275,20.35 C25.1603068,20.35 27.5,22.6889382 27.5,25.575 C27.5,28.4610618 25.1603068,30.8 22.275,30.8 Z" id="Oval-Copy" fill="#0093C9" fill-rule="nonzero"></path>
        </g>
        <rect id="Rectangle" x="0" y="0" width="55" height="55"></rect>
    </g>
</svg>