<?xml version="1.0" encoding="UTF-8"?>
<svg width="55px" height="55px" viewBox="0 0 55 55" version="1.1" xmlns="http://www.w3.org/2000/svg" xmlns:xlink="http://www.w3.org/1999/xlink">
    <title>credit_reports_edu</title>
    <g id="credit_reports_edu" stroke="none" stroke-width="1" fill="none" fill-rule="evenodd">
        <g id="Group" fill-rule="nonzero">
            <g id="Group-2" transform="translate(4.910714, 0.000000)">
                <g id="illustrations/score_simulator" transform="translate(-0.000000, 0.000000)" fill="#333E48">
                    <path d="M32.4930338,1.07044467 L34.6237245,1.07044467 L34.6237245,10.864512 C34.6237245,10.975274 34.7131696,11.0651162 34.8233731,11.0651162 L44.5707842,11.0651162 L44.5707842,13.2060056 L34.8233731,13.2060056 C33.5365863,13.2060056 32.4930338,12.1578201 32.4930338,10.864512 L32.4930338,1.07044467 Z M33.4383402,2.14088935 L2.33033934,2.14088935 C2.22043667,2.14088935 2.13069074,2.23106485 2.13069074,2.34149358 L2.13069074,52.6585064 C2.13069074,52.7689351 2.22043667,52.8591107 2.33033934,52.8591107 L43.0473329,52.8591107 C43.2144549,52.8591107 43.3500785,52.7228814 43.3500785,52.5549159 L43.3500785,12.5412773 L33.4383402,2.14088935 Z M43.0473329,55 L2.33033934,55 C1.04368867,55 0,53.9513157 0,52.6585064 L0,2.34149358 C0,1.04868431 1.04368867,0 2.33033934,0 L33.893204,0 C34.1837587,0 34.4617074,0.119242054 34.6626611,0.330102789 L45.184881,11.3710691 C45.3747702,11.5703199 45.4807692,11.8355399 45.4807692,12.111411 L45.4807692,52.5549159 C45.4807692,53.905415 44.3910506,55 43.0473329,55 Z" id="Combined-Shape"></path>
                </g>
                <path d="M16.9501972,30.6730769 C16.3510718,30.6730769 15.8653846,30.1995319 15.8653846,29.6153846 C15.8653846,29.0312373 16.3510718,28.5576923 16.9501972,28.5576923 L35.9344181,28.5576923 C36.5335436,28.5576923 37.0192308,29.0312373 37.0192308,29.6153846 C37.0192308,30.1995319 36.5335436,30.6730769 35.9344181,30.6730769 L16.9501972,30.6730769 Z" id="Stroke-1" fill="#333E48"></path>
                <path d="M12.9516221,26.7043867 C13.4404299,26.2958315 14.1576948,26.3734699 14.5536779,26.8777969 C14.9496611,27.3821239 14.8744118,28.1221611 14.385604,28.5307163 L10.8704764,31.468729 C10.4524277,31.8181423 9.85442708,31.818113 9.4364105,31.4686588 L7.82585041,30.1222597 C7.33708013,29.7136566 7.26189894,28.973612 7.65792851,28.4693238 C8.05395809,27.9650356 8.77123009,27.8874675 9.26000036,28.2960706 L10.1535551,29.0430661 L12.9516221,26.7043867 Z" id="Stroke-2" fill="#0093C9"></path>
                <path d="M16.9501972,40.1923077 C16.3510718,40.1923077 15.8653846,39.7187627 15.8653846,39.1346154 C15.8653846,38.5504681 16.3510718,38.0769231 16.9501972,38.0769231 L35.9344181,38.0769231 C36.5335436,38.0769231 37.0192308,38.5504681 37.0192308,39.1346154 C37.0192308,39.7187627 36.5335436,40.1923077 35.9344181,40.1923077 L16.9501972,40.1923077 Z" id="Stroke-1" fill="#333E48"></path>
                <path d="M12.9516221,36.2236175 C13.4404299,35.8150623 14.1576948,35.8927007 14.5536779,36.3970277 C14.9496611,36.9013547 14.8744118,37.6413919 14.385604,38.0499471 L10.8704764,40.9879598 C10.4524277,41.3373731 9.85442708,41.3373438 9.4364105,40.9878895 L7.82585041,39.6414905 C7.33708013,39.2328874 7.26189894,38.4928428 7.65792851,37.9885546 C8.05395809,37.4842664 8.77123009,37.4066982 9.26000036,37.8153013 L10.1535551,38.5622969 L12.9516221,36.2236175 Z" id="Stroke-2" fill="#0093C9"></path>
                <path d="M16.9501972,21.1538462 C16.3510718,21.1538462 15.8653846,20.6803012 15.8653846,20.0961538 C15.8653846,19.5120065 16.3510718,19.0384615 16.9501972,19.0384615 L35.9344181,19.0384615 C36.5335436,19.0384615 37.0192308,19.5120065 37.0192308,20.0961538 C37.0192308,20.6803012 36.5335436,21.1538462 35.9344181,21.1538462 L16.9501972,21.1538462 Z" id="Stroke-5" fill="#333E48"></path>
                <path d="M12.9516221,17.185156 C13.4404299,16.7766008 14.1576948,16.8542391 14.5536779,17.3585661 C14.9496611,17.8628931 14.8744118,18.6029304 14.385604,19.0114856 L10.8704764,21.9494982 C10.4524277,22.2989116 9.85442708,22.2988823 9.4364105,21.949428 L7.82585041,20.603029 C7.33708013,20.1944259 7.26189894,19.4543812 7.65792851,18.950093 C8.05395809,18.4458048 8.77123009,18.3682367 9.26000036,18.7768398 L10.1535551,19.5238353 L12.9516221,17.185156 Z" id="Stroke-6" fill="#0093C9"></path>
            </g>
        </g>
        <rect id="Rectangle" x="0" y="0" width="55" height="55"></rect>
    </g>
</svg>