<?xml version="1.0" encoding="UTF-8"?>
<svg width="55px" height="55px" viewBox="0 0 55 55" version="1.1" xmlns="http://www.w3.org/2000/svg" xmlns:xlink="http://www.w3.org/1999/xlink">
    <title>credit_cards_edu</title>
    <g id="credit_cards_edu" stroke="none" stroke-width="1" fill="none" fill-rule="evenodd">
        <g id="Group" fill-rule="nonzero">
            <g id="illustrations/creditcard_icon" transform="translate(0.000000, 2.946429)">
                <path d="M9.07618137,21.8696603 C9.24224581,22.3293326 9.00359802,22.8363646 8.54314661,23.002148 C8.08269521,23.1679315 7.57480376,22.9296875 7.40873932,22.4700153 L5.46421681,17.0871206 C5.17935315,16.3392589 5.20465462,15.5089182 5.53452591,14.7797249 C5.8643972,14.0505316 6.47165887,13.4825669 7.23170331,13.1978691 L43.201633,0.196431879 C43.9507622,-0.0879497538 44.7825104,-0.0626910959 45.5129397,0.266622004 C46.2433689,0.595935104 46.8122963,1.20216921 47.0973617,1.96061058 L54.8032352,23.1825378 C55.0880988,23.9303995 55.0627974,24.7607402 54.7329261,25.4899335 C54.4030548,26.2191268 53.7957931,26.7870915 53.0356277,27.071833 L43.7296241,30.4340211 C43.2693564,30.6003123 42.7612016,30.3626287 42.5946286,29.9031399 C42.4280555,29.443651 42.666142,28.9363561 43.1264097,28.7700649 L52.4226065,25.4114854 C52.7315777,25.2957247 52.9816266,25.0618569 53.117456,24.7616009 C53.2532853,24.4613448 53.2637036,24.1194398 53.1415915,23.7985519 L45.4343586,2.57303221 C45.3184017,2.26458383 45.0841375,2.01495803 44.7833725,1.87935852 C44.4826075,1.743759 44.140123,1.73335838 43.8183737,1.85537867 L7.8448455,14.858173 C7.5358743,14.9739337 7.28582538,15.2078015 7.14999602,15.5080576 C7.01416667,15.8083136 7.00374842,16.1502186 7.12635204,16.4724637 L9.07618137,21.8696603 Z M8.36927589,22.2930919 C7.90950332,22.4607425 7.400646,22.2245615 7.23271125,21.7655669 C7.0647765,21.3065724 7.3013578,20.7985761 7.76113037,20.6309255 L47.5553744,6.12042957 C48.015147,5.95277899 48.5240043,6.18895996 48.691939,6.64795453 C48.8598738,7.10694911 48.6232925,7.61494537 48.1635199,7.78259595 L8.36927589,22.2930919 Z M40.8001873,16.4560776 C40.3389899,16.6197814 39.8321824,16.3792478 39.6682011,15.9188309 C39.5042198,15.4584139 39.7451611,14.952464 40.2063585,14.7887602 L44.1946457,13.3731021 C44.6558431,13.2093982 45.1626506,13.4499318 45.3266319,13.9103488 C45.4906132,14.3707657 45.2496719,14.8767156 44.7884745,15.0404194 L40.8001873,16.4560776 Z M3.0133726,23.0546241 C2.32809742,23.0546241 1.77257212,23.6092094 1.77257212,24.293325 L1.77257212,46.5899407 C1.77257212,47.2740563 2.32809742,47.8286416 3.0133726,47.8286416 L41.3009303,47.8286416 C41.9862055,47.8286416 42.5417308,47.2740563 42.5417308,46.5899407 L42.5417308,24.293325 C42.5417308,23.6092094 41.9862055,23.0546241 41.3009303,23.0546241 L3.0133726,23.0546241 Z M3.0133726,21.2850514 L41.3009303,21.2850514 C42.9651701,21.2850514 44.3143029,22.6319014 44.3143029,24.293325 L44.3143029,46.5899407 C44.3143029,48.2513643 42.9651701,49.5982143 41.3009303,49.5982143 L3.0133726,49.5982143 C1.34913287,49.5982143 0,48.2513643 0,46.5899407 L0,24.293325 C0,22.6319014 1.34913287,21.2850514 3.0133726,21.2850514 Z" id="Combined-Shape" fill="#333E48"></path>
                <path d="M7.85714286,35.8482143 C7.31472033,35.8482143 6.875,35.408494 6.875,34.8660714 C6.875,34.3236489 7.31472033,33.8839286 7.85714286,33.8839286 L19.6428571,33.8839286 C20.1852797,33.8839286 20.625,34.3236489 20.625,34.8660714 C20.625,35.408494 20.1852797,35.8482143 19.6428571,35.8482143 L7.85714286,35.8482143 Z" id="Line" fill="#0093C9"></path>
                <path d="M7.85714286,42.2321429 C7.31472033,42.2321429 6.875,41.7924225 6.875,41.25 C6.875,40.7075775 7.31472033,40.2678571 7.85714286,40.2678571 L10.3125,40.2678571 C10.8549225,40.2678571 11.2946429,40.7075775 11.2946429,41.25 C11.2946429,41.7924225 10.8549225,42.2321429 10.3125,42.2321429 L7.85714286,42.2321429 Z" id="Line-Copy-2" fill="#0093C9"></path>
                <path d="M16.2053571,42.2321429 C15.6629346,42.2321429 15.2232143,41.7924225 15.2232143,41.25 C15.2232143,40.7075775 15.6629346,40.2678571 16.2053571,40.2678571 L18.6607143,40.2678571 C19.2031368,40.2678571 19.6428571,40.7075775 19.6428571,41.25 C19.6428571,41.7924225 19.2031368,42.2321429 18.6607143,42.2321429 L16.2053571,42.2321429 Z" id="Line-Copy-3" fill="#0093C9"></path>
                <path d="M24.5535714,42.2321429 C24.0111489,42.2321429 23.5714286,41.7924225 23.5714286,41.25 C23.5714286,40.7075775 24.0111489,40.2678571 24.5535714,40.2678571 L27.0089286,40.2678571 C27.5513511,40.2678571 27.9910714,40.7075775 27.9910714,41.25 C27.9910714,41.7924225 27.5513511,42.2321429 27.0089286,42.2321429 L24.5535714,42.2321429 Z" id="Line-Copy-4" fill="#0093C9"></path>
                <path d="M33.3928571,42.2321429 C32.8504346,42.2321429 32.4107143,41.7924225 32.4107143,41.25 C32.4107143,40.7075775 32.8504346,40.2678571 33.3928571,40.2678571 L35.8482143,40.2678571 C36.3906368,40.2678571 36.8303571,40.7075775 36.8303571,41.25 C36.8303571,41.7924225 36.3906368,42.2321429 35.8482143,42.2321429 L33.3928571,42.2321429 Z" id="Line-Copy-5" fill="#0093C9"></path>
                <path d="M30.9375,29.9553571 C30.3950775,29.9553571 29.9553571,29.5156368 29.9553571,28.9732143 C29.9553571,28.4307918 30.3950775,27.9910714 30.9375,27.9910714 L36.3392857,27.9910714 C36.8817082,27.9910714 37.3214286,28.4307918 37.3214286,28.9732143 C37.3214286,29.5156368 36.8817082,29.9553571 36.3392857,29.9553571 L30.9375,29.9553571 Z" id="Line-Copy" fill="#0093C9"></path>
            </g>
        </g>
        <rect id="Rectangle" x="0" y="0" width="55" height="55"></rect>
    </g>
</svg>