<?xml version="1.0" encoding="UTF-8"?>
<svg width="55px" height="55px" viewBox="0 0 55 55" version="1.1" xmlns="http://www.w3.org/2000/svg" xmlns:xlink="http://www.w3.org/1999/xlink">
    <title>loans_edu</title>
    <g id="loans_edu" stroke="none" stroke-width="1" fill="none" fill-rule="evenodd">
        <g id="Group" transform="translate(0.000000, 2.000000)">
            <g id="illustrations/bank" transform="translate(1.352459, 0.000000)">
                <path d="M6.2407586,44.6454082 L46.9559627,44.6454082 L46.9559627,42.1146365 L6.2407586,42.1146365 L6.2407586,44.6454082 Z M6.2407586,40.4274554 L46.9559627,40.4274554 C47.9128302,40.4274554 48.6885246,41.1828321 48.6885246,42.1146365 L48.6885246,46.3325893 L4.50819672,46.3325893 L4.50819672,42.1146365 C4.50819672,41.1828321 5.2838911,40.4274554 6.2407586,40.4274554 Z" id="Rectangle-Copy-3" fill="#333E48" fill-rule="nonzero"></path>
                <path d="M1.72937382,46.6570472 L1.72937382,49.1878189 L51.0165278,49.1878189 L51.0165278,46.6570472 L1.72937382,46.6570472 Z M1.72937382,44.9698661 L51.0165278,44.9698661 C51.9716346,44.9698661 52.7459016,45.7252428 52.7459016,46.6570472 L52.7459016,49.1878189 C52.7459016,50.1196233 51.9716346,50.875 51.0165278,50.875 L1.72937382,50.875 C0.774267034,50.875 0,50.1196233 0,49.1878189 L0,46.6570472 C0,45.7252428 0.774267034,44.9698661 1.72937382,44.9698661 Z" id="Rectangle-Copy-4" fill="#333E48" fill-rule="nonzero" transform="translate(26.372951, 47.922433) scale(1, -1) translate(-26.372951, -47.922433) "></path>
                <rect id="Rectangle" fill="#0093C9" x="14.8770492" y="22.2578125" width="1.80327869" height="15.4441964" rx="0.901639344"></rect>
                <rect id="Rectangle-Copy-2" fill="#333E48" x="8.1147541" y="18.6238839" width="1.80327869" height="23.6205357" rx="0.901639344"></rect>
                <rect id="Rectangle" fill="#0093C9" x="21.6393443" y="22.2578125" width="1.80327869" height="15.4441964" rx="0.901639344"></rect>
                <rect id="Rectangle" fill="#0093C9" x="29.3032787" y="22.2578125" width="1.80327869" height="15.4441964" rx="0.901639344"></rect>
                <rect id="Rectangle" fill="#0093C9" x="36.0655738" y="22.2578125" width="1.80327869" height="15.4441964" rx="0.901639344"></rect>
                <rect id="Rectangle-Copy" fill="#333E48" x="42.8278689" y="18.6238839" width="1.80327869" height="23.6205357" rx="0.901639344"></rect>
                <path d="M26.3729176,1.81650261 L5.7348796,17.3724411 L47.0109556,17.3724411 L26.3729176,1.81650261 Z M27.1640745,0.263879011 L49.0805995,16.7834782 C49.650758,17.2132356 49.7587498,18.0162257 49.3218059,18.5770068 C49.0756732,18.8928976 48.6940826,19.078125 48.2894426,19.078125 L4.45639259,19.078125 C3.73806073,19.078125 3.1557377,18.5053795 3.1557377,17.7988621 C3.1557377,17.4008772 3.34406251,17.0255627 3.6652357,16.7834782 L25.5817607,0.263879011 C26.0485445,-0.0879596704 26.6972907,-0.0879596704 27.1640745,0.263879011 Z" id="Triangle" fill="#333E48" fill-rule="nonzero"></path>
                <path d="M26.5983607,15.4441964 C24.1105132,15.4441964 22.0901639,13.4125008 22.0901639,10.9017857 C22.0901639,8.39107061 24.1105132,6.359375 26.5983607,6.359375 C29.0862082,6.359375 31.1065574,8.39107061 31.1065574,10.9017857 C31.1065574,13.4125008 29.0862082,15.4441964 26.5983607,15.4441964 Z M26.5983607,13.5286545 C28.0478844,13.5286545 29.2194053,12.3505544 29.2194053,10.9017857 C29.2194053,9.45301705 28.0478844,8.27491688 26.5983607,8.27491688 C25.1488369,8.27491688 23.9773161,9.45301705 23.9773161,10.9017857 C23.9773161,12.3505544 25.1488369,13.5286545 26.5983607,13.5286545 Z" id="Oval" fill="#0093C9" fill-rule="nonzero"></path>
            </g>
        </g>
        <rect id="Rectangle" x="0" y="0" width="55" height="55"></rect>
    </g>
</svg>