<?xml version="1.0" encoding="utf-8"?>
<!-- Generator: Adobe Illustrator 27.0.0, SVG Export Plug-In . SVG Version: 6.00 Build 0)  -->
<svg version="1.1" id="Layer_1" xmlns="http://www.w3.org/2000/svg" xmlns:xlink="http://www.w3.org/1999/xlink" x="0px" y="0px"
	 viewBox="0 0 55 55" style="enable-background:new 0 0 55 55;" xml:space="preserve">
<style type="text/css">
	.st0{fill-rule:evenodd;clip-rule:evenodd;fill:#FFFFFF;}
	.st1{fill:#333E48;}
	.st2{fill:#FFFFFF;}
	.st3{fill:#3FAE29;}
</style>
<g id="UI-ToolKit">
	<g id="Icons-_x26_-Illustrations" transform="translate(-676, -922)">
		<g id="illustrations_x2F_chat_x5F_illustration" transform="translate(676, 922)">
			<path id="Shape_00000038388287899899816600000010226689959097974404_" class="st0" d="M1.5,5.6v25.1h6.1c0.6,0,1,0.5,1,1v7.5
				l8.2-8.2c0.2-0.2,0.5-0.3,0.7-0.3h26.6V5.6H1.5z"/>
			<path id="Shape_00000091719143395179740320000008487622369829312421_" class="st1" d="M24.1,42c-0.5,0-1-0.4-1-1v-9.6
				c0-0.5,0.4-1,1-1s1,0.4,1,1v8.6h13.7c0.3,0,0.5,0.1,0.7,0.3l8,7.9v-7.2c0-0.5,0.4-1,1-1h4.2v-17h-7.7c-0.5,0-1-0.4-1-1
				c0-0.5,0.4-1,1-1h8.7c0.5,0,1,0.4,1,1v18.9c0,0.5-0.4,1-1,1h-4.2v8.6c0,0.9-1,1.3-1.7,0.7L38.3,42H24.1z"/>
			<path id="Shape_00000173844806556263907380000013771257847427316397_" class="st1" d="M7.3,32.3H1.5c-0.5,0-1-0.4-1-1V5.4
				c0-0.5,0.4-1,1-1h42.7c0.5,0,1,0.4,1,1v25.9c0,0.5-0.4,1-1,1h-26L9,41.5c-0.6,0.6-1.7,0.2-1.7-0.7V32.3z"/>
			<path id="Shape_00000054962370447982875400000010981035183410287519_" class="st2" d="M2.4,6.4v23.9h5.9c0.5,0,1,0.4,1,1v7.1
				l7.8-7.8c0.2-0.2,0.4-0.3,0.7-0.3h25.4V6.4H2.4z"/>
		</g>
		<g>
			<path class="st3" d="M688.3,943.9h-1.7v-3.5h-3.2v3.5h-1.7v-8.1h1.7v3.2h3.2v-3.2h1.7V943.9z"/>
			<path class="st3" d="M697.6,939.8c0,0.6-0.1,1.2-0.2,1.7s-0.4,0.9-0.7,1.3s-0.7,0.7-1.2,0.8c-0.5,0.2-1.1,0.3-1.7,0.3
				c-0.7,0-1.2-0.1-1.7-0.3c-0.5-0.2-0.9-0.5-1.2-0.8s-0.5-0.8-0.7-1.3c-0.2-0.5-0.2-1.1-0.2-1.7c0-0.8,0.1-1.6,0.4-2.2
				c0.3-0.6,0.7-1.1,1.3-1.4c0.6-0.3,1.3-0.5,2.2-0.5c0.9,0,1.6,0.2,2.2,0.5s1,0.8,1.3,1.4C697.5,938.3,697.6,939,697.6,939.8z
				 M691.8,939.8c0,0.6,0.1,1,0.2,1.5c0.1,0.4,0.4,0.7,0.7,0.9c0.3,0.2,0.7,0.3,1.2,0.3c0.5,0,0.9-0.1,1.2-0.3
				c0.3-0.2,0.5-0.5,0.7-0.9c0.1-0.4,0.2-0.9,0.2-1.5c0-0.8-0.2-1.5-0.5-2c-0.3-0.5-0.8-0.7-1.6-0.7c-0.5,0-0.9,0.1-1.2,0.3
				c-0.3,0.2-0.5,0.5-0.7,0.9C691.8,938.8,691.8,939.3,691.8,939.8z"/>
			<path class="st3" d="M699.3,943.9v-8.1h1.7v6.7h3.3v1.4H699.3z"/>
			<path class="st3" d="M710.7,943.9l-0.6-1.9h-2.9l-0.6,1.9h-1.8l2.9-8.1h2.1l2.9,8.1H710.7z M709.7,940.5l-0.6-1.9
				c0-0.1-0.1-0.3-0.1-0.5c-0.1-0.2-0.1-0.4-0.2-0.6c-0.1-0.2-0.1-0.4-0.1-0.5c0,0.2-0.1,0.3-0.2,0.6c-0.1,0.2-0.1,0.4-0.2,0.6
				s-0.1,0.3-0.1,0.4l-0.6,1.9H709.7z"/>
			<path class="st3" d="M713.1,943.1c0-0.3,0.1-0.6,0.3-0.7c0.2-0.1,0.4-0.2,0.7-0.2c0.3,0,0.5,0.1,0.7,0.2c0.2,0.1,0.3,0.4,0.3,0.7
				c0,0.3-0.1,0.6-0.3,0.7c-0.2,0.1-0.4,0.2-0.7,0.2c-0.3,0-0.5-0.1-0.7-0.2C713.2,943.7,713.1,943.4,713.1,943.1z M714.8,941.2
				h-1.3l-0.3-5.4h1.9L714.8,941.2z"/>
		</g>
	</g>
</g>
</svg>
