<?xml version="1.0" encoding="UTF-8"?>
<svg width="55px" height="55px" viewBox="0 0 55 55" version="1.1" xmlns="http://www.w3.org/2000/svg" xmlns:xlink="http://www.w3.org/1999/xlink">
    <title>fraud_edu</title>
    <g id="fraud_edu" stroke="none" stroke-width="1" fill="none" fill-rule="evenodd">
        <g id="illustrations/fraud_illustration" transform="translate(0.000000, 9.330357)">
            <path d="M45.6633899,29.9431179 C45.6633899,30.9641717 45.1505355,31.8262189 44.2578786,32.3087216 C42.1145345,33.4650224 38.9321766,35.0033045 36.055233,35.0033045 C33.9257989,35.0033045 32.3569968,34.3075745 30.9726529,33.6946986 C29.8132876,33.1811256 28.7174243,32.6955767 27.5,32.6955767 C26.1761342,32.6955767 25.0893427,33.1920915 23.9384443,33.7184582 C22.5559148,34.35022 21.1268171,35.0033045 18.9435574,35.0033045 C16.0660091,35.0033045 12.8842559,33.4656316 10.7421214,32.3087216 C9.84765015,31.8262189 9.33540058,30.9641717 9.33540058,29.9431179 L9.33540058,21.6692926 C16.7052627,22.7439578 22.1827648,23.2051378 27.4903235,23.2051378 C32.7948583,23.2051378 38.2771987,22.7433485 45.6633899,21.6686833 L45.6633899,29.9431179 Z" id="Shape" fill="#FFFFFF"></path>
            <path d="M27.5,21.0667734 C10.8806162,21.0667734 1.81434321,18.0486944 1.81434321,16.4982279 C1.81434321,15.540533 5.28518176,14.0260106 11.8404038,13.0061752 C11.7073519,13.9973772 11.5658332,15.0440182 11.406171,16.2009282 C11.406171,16.2009282 12.0051058,16.2845945 13.2029755,16.4519271 C13.5646346,13.8267954 13.83981,11.7511807 14.1155902,9.67251994 C14.3665743,7.77967145 14.6181632,5.88377685 14.9350685,3.56812924 C23.3790218,1.28050578 31.825999,1.25248163 40.0679554,3.47674614 C38.9085901,4.12008313 34.7380198,5.07412263 27.7449363,5.07412263 C23.8138594,5.07412263 20.121671,4.7512357 17.6142486,4.18831584 L17.2199314,5.97211384 C19.850729,6.56305785 23.6868554,6.90178452 27.7449363,6.90178452 C29.5985903,6.90178452 37.2768908,6.8006539 40.5923006,5.20876039 C40.7834114,6.78542338 40.9600075,8.22866705 41.1366035,9.6713015 C41.3930307,11.7700666 41.6500627,13.8700501 41.9524532,16.3824759 L43.754096,16.1625473 C43.6204394,15.0519381 43.4958545,14.0247921 43.3761078,13.0396824 C49.792835,14.0595177 53.1856568,15.551499 53.1856568,16.4988371 C53.1856568,18.0486944 44.1193838,21.0667734 27.5,21.0667734 Z" id="Path" fill="#FFFFFF"></path>
            <path d="M13.8736777,1.9664882 C23.1455763,-0.656206604 32.4313848,-0.655597384 41.4716523,1.96892509 L41.4716523,1.96892509 L42.0486134,2.13646076 L42.1211871,2.73654308 C42.4235777,5.24896895 42.6806096,7.34895246 42.9370368,9.44771753 C43.0077962,10.0191665 43.0779508,10.5930523 43.1487102,11.1730304 C49.7257043,12.1465649 55,13.8426351 55,16.4982279 C55,18.5366801 51.8944492,20.0103848 47.4771283,21.0259556 L47.4771283,21.0259556 L47.4771283,29.9431179 C47.4771283,31.6337052 46.5935431,33.1202035 45.1142486,33.919501 C42.7985419,35.1684033 39.3410086,36.8303571 36.055233,36.8303571 C33.5453916,36.8303571 31.7141145,36.0188753 30.2420774,35.3670092 C29.2199974,34.9143583 28.3364122,34.5226294 27.5,34.5226294 C26.5680324,34.5226294 25.7388775,34.9015646 24.6889776,35.3816305 C23.2768138,36.0274044 21.51932,36.8303571 18.9441622,36.8303571 C15.6583867,36.8303571 12.2002485,35.1690125 9.88514658,33.919501 C8.4052473,33.1208127 7.52166216,31.6337052 7.52166216,29.9431179 L7.52166216,29.9431179 L7.52166216,21.0259556 C3.10494601,20.0103848 0,18.5366801 0,16.4982279 C0,13.8097372 5.40190451,12.1039195 12.0913879,11.1370863 C12.1675903,10.5607636 12.2425832,9.99601609 12.317576,9.43065935 C12.5903323,7.37514895 12.8630886,5.31659244 13.2205142,2.72131256 L13.2205142,2.72131256 L13.3021596,2.12854089 Z M45.6633899,21.6686833 C38.2771987,22.7433485 32.7948583,23.2051378 27.4903235,23.2051378 C22.1827648,23.2051378 16.7052627,22.7439578 9.33540058,21.6692926 L9.33540058,21.6692926 L9.33540058,29.9431179 C9.33540058,30.9641717 9.84765015,31.8262189 10.7421214,32.3087216 C12.8842559,33.4656316 16.0660091,35.0033045 18.9435574,35.0033045 C21.1268171,35.0033045 22.5559148,34.35022 23.9384443,33.7184582 C25.0893427,33.1920915 26.1761342,32.6955767 27.5,32.6955767 C28.7174243,32.6955767 29.8132876,33.1811256 30.9726529,33.6946986 C32.3569968,34.3075745 33.9257989,35.0033045 36.055233,35.0033045 C38.9321766,35.0033045 42.1145345,33.4650224 44.2578786,32.3087216 C45.1505355,31.8262189 45.6633899,30.9641717 45.6633899,29.9431179 L45.6633899,29.9431179 Z M40.0679554,3.47674614 C31.825999,1.25248163 23.3790218,1.28050578 14.9350685,3.56812924 C14.6181632,5.88377685 14.3665743,7.77967145 14.1155902,9.67251994 C13.83981,11.7511807 13.5646346,13.8267954 13.2029755,16.4519271 C12.9035081,16.410094 12.6414741,16.3734899 12.4168735,16.3421151 L12.1080477,16.2989746 C12.061256,16.2924382 12.0168038,16.2862286 11.9746912,16.2803458 L11.7500906,16.248971 C11.7173363,16.2443955 11.6869217,16.2401468 11.6588466,16.2362249 L11.406171,16.2009282 C11.5658332,15.0440182 11.7073519,13.9973772 11.8404038,13.0061752 C5.28518176,14.0260106 1.81434321,15.540533 1.81434321,16.4982279 C1.81434321,18.0486944 10.8806162,21.0667734 27.5,21.0667734 C44.1193838,21.0667734 53.1856568,18.0486944 53.1856568,16.4988371 C53.1856568,15.551499 49.792835,14.0595177 43.3761078,13.0396824 C43.4958545,14.0247921 43.6204394,15.0519381 43.754096,16.1625473 L43.754096,16.1625473 L41.9524532,16.3824759 C41.6500627,13.8700501 41.3930307,11.7700666 41.1366035,9.6713015 C40.9600075,8.22866705 40.7834114,6.78542338 40.5923006,5.20876039 C37.2768908,6.8006539 29.5985903,6.90178452 27.7449363,6.90178452 C23.6868554,6.90178452 19.850729,6.56305785 17.2199314,5.97211384 L17.2199314,5.97211384 L17.6142486,4.18831584 C20.121671,4.7512357 23.8138594,5.07412263 27.7449363,5.07412263 C34.7380198,5.07412263 38.9085901,4.12008313 40.0679554,3.47674614 Z" id="burglar" fill="#333E48" fill-rule="nonzero"></path>
            <path d="M13.268651,26.7953802 C14.2188951,25.2219202 16.5294445,24.2402229 19.0966553,24.3774432 C21.6686412,24.5140918 23.8341471,25.6976174 24.6130846,27.3922887 L24.6130846,27.3922887 L24.7963289,27.7902278 L24.568915,28.167012 C23.6777627,29.6432743 21.5761237,30.5975275 19.2160327,30.5975275 C19.0584546,30.5975275 18.9002795,30.594097 18.7397169,30.5855207 C16.1683279,30.4494438 14.0034189,29.2659183 13.2244814,27.5695317 L13.2244814,27.5695317 L13.0412371,27.1715927 Z M35.60541,24.3646978 C38.1114143,24.3646978 40.2991013,25.3999697 41.1801371,27.0012896 L41.1801371,27.0012896 L41.3917526,27.3868668 L41.1932513,27.7793191 C40.3485776,29.4488168 38.1400271,30.5551312 35.5684518,30.5963816 L35.5684518,30.5963816 L35.4247917,30.5975275 C32.916999,30.5975275 30.7281199,29.5628285 29.8482763,27.9609357 L29.8482763,27.9609357 L29.6366608,27.5759314 L29.8351621,27.1829062 C30.6798358,25.5134085 32.8883862,24.4070941 35.4599616,24.3658436 L35.4599616,24.3658436 Z M18.998169,26.0909824 C17.3788146,26.0023609 15.8740626,26.4877779 15.1088535,27.2819407 C15.7815451,28.1555769 17.2295929,28.7890776 18.8388001,28.8736968 C20.4539763,28.9617465 21.9635034,28.4763295 22.7287125,27.6827385 C22.055424,26.8091022 20.6067793,26.1756016 18.998169,26.0909824 Z M35.6048139,26.0840398 L35.4897666,26.0851857 C33.8808927,26.1109672 32.410314,26.6919112 31.7039356,27.5421289 C32.4210438,28.345367 33.8653941,28.8787584 35.4241956,28.8787584 L35.4241956,28.8787584 L35.5380507,28.8776125 C37.1469246,28.851831 38.616311,28.270887 39.3232856,27.4212422 C38.6055812,26.6174312 37.1618271,26.0840398 35.6048139,26.0840398 L35.6048139,26.0840398 Z" id="colors" fill="#FF661B"></path>
        </g>
        <rect id="Rectangle" x="0" y="0" width="55" height="55"></rect>
    </g>
</svg>