<?xml version="1.0" encoding="UTF-8"?>
<svg width="55px" height="55px" viewBox="0 0 55 55" version="1.1" xmlns="http://www.w3.org/2000/svg" xmlns:xlink="http://www.w3.org/1999/xlink">
    <title>cybersecurity_edu</title>
    <g id="cybersecurity_edu" stroke="none" stroke-width="1" fill="none" fill-rule="evenodd">
        <g id="Icon-Light" transform="translate(0.982143, 7.366071)">
            <path d="M20.1810536,3.17307692 C20.6988206,3.17307692 21.1230097,3.5737312 21.1605026,4.08192131 L21.1631965,4.15521978 L21.1631965,9.62988479 C21.1631965,10.1723073 19.2390975,10.7383029 19.2016046,10.2301128 L19.1984375,5.13709821 L12.6265558,5.13736264 C12.1087889,5.13736264 12.1183657,3.21326369 12.6265558,3.17577081 L20.1810536,3.17307692 Z" id="Path-21" fill="#333D47" fill-rule="nonzero"></path>
            <path d="M39.7177108,3.06372903 C40.0793258,3.06372903 40.2430163,3.71849094 40.2087823,5.02801475 L33.6167857,5.02758929 L33.6172103,9.93742241 C33.6172103,10.2826004 32.9624484,10.0863647 31.6529246,9.34871537 L31.6529246,4.04587189 C31.6529246,3.52810494 32.0535788,3.1039158 32.561769,3.06642292 L32.6350674,3.06372903 L39.7177108,3.06372903 Z" id="Path-22" fill="#333D47" fill-rule="nonzero"></path>
            <path d="M32.6111919,34.8660714 L40.2436254,34.8665347 C40.7613924,34.8665347 40.7518155,36.7906336 40.2436254,36.8281265 L31.0403567,36.8308204 C30.6951788,36.8308204 31.2187905,36.1759041 32.6111919,34.8660714 Z" id="Path-22-Copy-3" fill="#333D47" fill-rule="nonzero"></path>
            <path d="M13.3718778,18.6607143 C13.7334928,18.6607143 13.9159599,19.3154762 13.919279,20.625 L7.0074127,20.625 C6.46499018,20.625 6.42592412,18.7009011 6.93411423,18.6634082 L13.3718778,18.6607143 Z" id="Path-22-Copy" fill="#333D47" fill-rule="nonzero"></path>
            <path d="M49.8233632,22.620315 L49.8233632,26.238523 C49.8233632,26.7562899 49.4227089,27.1804791 48.9145188,27.217972 L48.8412204,27.2206658 L37.5737609,27.2206658 C37.2121459,27.2206658 37.3771692,26.5659039 38.0688308,25.2563801 L47.8590397,25.2562946 L47.8590775,22.5364512 C47.8590775,22.1912732 48.5138394,22.2192278 49.8233632,22.620315 Z" id="Path-22-Copy-4" fill="#333D47" fill-rule="nonzero"></path>
            <path d="M16.5740066,28.401152 C16.935612,28.3985201 17.3225385,29.0532647 17.7347862,30.3653857 L9.48258929,30.4675446 L9.48261114,33.107559 C9.48261114,33.452737 8.82784924,33.452737 7.51832543,33.107559 L7.51832543,29.4926168 C7.51832543,28.9775125 7.91502125,28.554505 8.42041296,28.5136981 L8.49332011,28.5104999 L16.5740066,28.401152 Z" id="Path-22-Copy-2" fill="#333D47" fill-rule="nonzero"></path>
            <g id="Group-13-Copy">
                <g id="dot" transform="translate(5.892857, 0.000000)">
                    <circle id="Oval-Copy-10" fill="#333D47" cx="3.92857143" cy="3.92857143" r="3.92857143"></circle>
                    <circle id="Oval-Copy-11" fill="#FF7633" cx="3.92857143" cy="3.92857143" r="1.96428571"></circle>
                </g>
                <g id="dot-copy" transform="translate(38.794643, 0.000000)" fill="#333D47">
                    <path d="M3.92857143,0 C6.09826152,0 7.85714286,1.75888134 7.85714286,3.92857143 C7.85714286,6.09826152 6.09826152,7.85714286 3.92857143,7.85714286 C1.75888134,7.85714286 0,6.09826152 0,3.92857143 C0,1.75888134 1.75888134,0 3.92857143,0 Z M3.92857143,1.96428571 C2.84372638,1.96428571 1.96428571,2.84372638 1.96428571,3.92857143 C1.96428571,5.01341647 2.84372638,5.89285714 3.92857143,5.89285714 C5.01341647,5.89285714 5.89285714,5.01341647 5.89285714,3.92857143 C5.89285714,2.84372638 5.01341647,1.96428571 3.92857143,1.96428571 Z" id="Combined-Shape"></path>
                </g>
                <g id="dot-copy-2" transform="translate(44.753606, 15.714286)">
                    <circle id="Oval-Copy-10" fill="#333D47" cx="3.92857143" cy="3.92857143" r="3.92857143"></circle>
                    <circle id="Oval-Copy-11" fill="#FF7633" cx="3.86246566" cy="3.92857143" r="1.96428571"></circle>
                </g>
                <g id="dot-copy-3" transform="translate(39.285714, 31.919643)" fill="#333D47">
                    <path d="M3.92857143,0 C6.09826152,0 7.85714286,1.75888134 7.85714286,3.92857143 C7.85714286,6.09826152 6.09826152,7.85714286 3.92857143,7.85714286 C1.75888134,7.85714286 0,6.09826152 0,3.92857143 C0,1.75888134 1.75888134,0 3.92857143,0 Z M3.92857143,1.96428571 C2.84372638,1.96428571 1.96428571,2.84372638 1.96428571,3.92857143 C1.96428571,5.01341647 2.84372638,5.89285714 3.92857143,5.89285714 C5.01341647,5.89285714 5.89285714,5.01341647 5.89285714,3.92857143 C5.89285714,2.84372638 5.01341647,1.96428571 3.92857143,1.96428571 Z" id="Combined-Shape"></path>
                </g>
                <g id="dot-copy-4" transform="translate(4.419643, 31.919643)">
                    <circle id="Oval-Copy-10" fill="#333D47" cx="3.92857143" cy="3.92857143" r="3.92857143"></circle>
                    <circle id="Oval-Copy-11" fill="#FF7633" cx="3.92857143" cy="3.92857143" r="1.96428571"></circle>
                </g>
                <g id="dot-copy-5" transform="translate(0.000000, 15.714286)" fill="#333D47">
                    <path d="M3.92857143,0 C6.09826152,0 7.85714286,1.75888134 7.85714286,3.92857143 C7.85714286,6.09826152 6.09826152,7.85714286 3.92857143,7.85714286 C1.75888134,7.85714286 0,6.09826152 0,3.92857143 C0,1.75888134 1.75888134,0 3.92857143,0 Z M3.92857143,1.96428571 C2.84372638,1.96428571 1.96428571,2.84372638 1.96428571,3.92857143 C1.96428571,5.01341647 2.84372638,5.89285714 3.92857143,5.89285714 C5.01341647,5.89285714 5.89285714,5.01341647 5.89285714,3.92857143 C5.89285714,2.84372638 5.01341647,1.96428571 3.92857143,1.96428571 Z" id="Combined-Shape"></path>
                </g>
                <g id="Lock-Copy-5" transform="translate(12.070117, 4.941744)" fill-rule="nonzero">
                    <path d="M13.481374,0.381298044 C14.1143832,-0.148282573 15.0511316,-0.126216714 15.6588292,0.447495621 C18.8621591,3.47168047 23.0674845,5.2184105 27.4746083,5.35515831 C28.3524119,5.38239551 29.0531455,6.09620509 29.0635616,6.97441335 C29.0825381,8.57437157 28.9774366,10.380145 28.7531611,12.2415664 C28.3180506,15.852857 27.474298,19.2284571 26.2319609,22.2851077 C23.88079,28.0699375 20.234252,32.396822 15.3359326,35.1471206 C14.8371959,35.4271503 14.2285445,35.4271503 13.7298079,35.1471206 C8.83148852,32.396822 5.18495053,28.0699375 2.83377954,22.2851077 C1.59144253,19.2284571 0.747689867,15.852857 0.312579406,12.2415664 C0.0883039237,10.380145 -0.016797575,8.57437157 0.00217889146,6.97441335 C0.0125949694,6.09620509 0.713328551,5.38239551 1.5911322,5.35515831 C5.99825597,5.2184105 10.2035814,3.47168047 13.4069113,0.447495621 L13.4069113,0.447495621 Z M14.5327327,1.96428571 C11.0857958,5.11985345 6.63649142,6.96930796 1.96428571,7.18749479 C1.96172614,8.63081578 2.06315439,10.2362367 2.26213911,11.8877522 C2.67532721,15.3170934 3.4730225,18.523723 4.65288399,21.4266586 C6.79624739,26.7001978 10.0883895,30.6807594 14.5314907,33.2251296 C18.975701,30.6812511 22.2681173,26.7005235 24.4116131,21.4266586 C25.5914746,18.523723 26.3891699,15.3170934 26.802358,11.8877522 C27.0013297,10.2363447 27.1027577,8.63102583 27.1008437,7.18764902 C22.4288652,6.96955992 17.9794877,5.12029023 14.5327327,1.96428571 Z" id="Combined-Shape" fill="#333D47"></path>
                    <path d="M14.2410714,6.875 C11.8001701,6.875 9.82142857,8.85374151 9.82142857,11.2946429 L9.82142857,14.7011136 C9.82142857,15.2076997 18.6607143,15.2076997 18.6607143,14.685599 L18.6607143,11.2946429 C18.6607143,8.85374151 16.6819728,6.875 14.2410714,6.875 Z M14.2410714,9.33035714 C15.3259165,9.33035714 16.2053571,10.2097978 16.2053571,11.2946429 L16.2053571,14.1945276 C16.2053571,14.7166282 12.2767857,14.7166282 12.2767857,14.2100422 L12.2767857,11.2946429 C12.2767857,10.2097978 13.1562264,9.33035714 14.2410714,9.33035714 Z" id="Rectangle-Copy-15" fill="#333D47"></path>
                    <path d="M19.6428571,13.75 C20.7277022,13.75 21.6071429,14.6294407 21.6071429,15.7142857 L21.6071429,19.3973214 C21.6071429,22.5162509 19.0787509,25.0446429 15.9598214,25.0446429 L12.5223214,25.0446429 C9.40339193,25.0446429 6.875,22.5162509 6.875,19.3973214 L6.875,15.7142857 C6.875,14.6294407 7.75444067,13.75 8.83928571,13.75 L19.6428571,13.75 Z" id="Path" fill="#333D47"></path>
                    <path d="M19.6428571,15.7142857 L19.6428571,19.3973214 C19.6428571,20.4143637 19.2306193,21.3351226 18.564121,22.001621 C17.8976226,22.6681193 16.9768637,23.0803571 15.9598214,23.0803571 L15.9598214,23.0803571 L12.5223214,23.0803571 C11.5052792,23.0803571 10.5845203,22.6681193 9.9180219,22.001621 C9.25152353,21.3351226 8.83928571,20.4143637 8.83928571,19.3973214 L8.83928571,19.3973214 L8.83928571,15.7142857 L19.6428571,15.7142857 Z" id="Path-Copy" fill="#FF7633"></path>
                </g>
            </g>
        </g>
        <rect id="Rectangle" x="0" y="0" width="55" height="55"></rect>
    </g>
</svg>