<?xml version="1.0" encoding="UTF-8"?>
<svg width="135px" height="110px" viewBox="0 0 135 110" version="1.1" xmlns="http://www.w3.org/2000/svg" xmlns:xlink="http://www.w3.org/1999/xlink">
    <!-- Generator: Sketch 55.2 (78181) - https://sketchapp.com -->
    <title>icons/product_families/core_credit</title>
    <desc>Created with Sketch.</desc>
    <g id="Public-Pages" stroke="none" stroke-width="1" fill="none" fill-rule="evenodd">
        <g id="EFX---UCSC-Landing---MVP1---Mobile" transform="translate(-119.000000, -2624.000000)">
            <g id="submit-dispute" transform="translate(10.000000, 2579.000000)">
                <g id="icons/product_families/core_credit" transform="translate(109.000000, 45.000000)">
                    <g>
                        <path d="M66.1206774,106.492089 C37.460871,106.492089 14.1445484,83.3387228 14.1445484,54.8803069 C14.1445484,26.420802 37.460871,3.26743564 66.1206774,3.26743564 C94.7804839,3.26743564 118.096806,26.420802 118.096806,54.8803069 C118.096806,83.3387228 94.7804839,106.492089 66.1206774,106.492089" id="Fill-1" fill="#FEFEFE"></path>
                        <path d="M66.1206774,-0.000217821781 C35.6474789,-0.000217821781 10.8542258,24.6186506 10.8542258,54.8799912 C10.8542258,85.1402207 35.6474789,109.759089 66.1206774,109.759089 C96.593876,109.759089 121.387129,85.1402207 121.387129,54.8799912 C121.387129,24.6186506 96.593876,-0.000217821781 66.1206774,-0.000217821781" id="Path" fill="#333F48"></path>
                        <path d="M66.1206774,102.135653 C39.8803548,102.135653 18.5316452,80.9372376 18.5316452,54.8803069 C18.5316452,28.8233762 39.8803548,7.62387129 66.1206774,7.62387129 C92.361,7.62387129 113.70971,28.8233762 113.70971,54.8803069 C113.70971,80.9372376 92.361,102.135653 66.1206774,102.135653" id="Fill-6" fill="#94348C"></path>
                        <path d="M66.1206774,5.44532673 C93.6146129,5.44532673 115.903258,27.578198 115.903258,54.8799802 C115.903258,82.1817624 93.6146129,104.313545 66.1206774,104.313545 C38.6267419,104.313545 16.3380968,82.1817624 16.3380968,54.8799802 C16.3380968,27.578198 38.6267419,5.44532673 66.1206774,5.44532673 Z M66.1206774,9.80176238 C41.0900968,9.80176238 20.7251935,30.0232475 20.7251935,54.8799802 C20.7251935,79.7356238 41.0900968,99.9571089 66.1206774,99.9571089 C91.1512581,99.9571089 111.516161,79.7356238 111.516161,54.8799802 C111.516161,30.0232475 91.1512581,9.80176238 66.1206774,9.80176238 Z M86.6439548,78.2549802 C85.9486,78.2549802 85.2960194,77.9903267 84.8046645,77.5100297 C84.3144065,77.0297327 84.0435032,76.3915149 84.0435032,75.713 C84.0435032,75.0344851 84.3144065,74.3962673 84.8046645,73.9159703 C89.7960839,69.0291386 92.5446,62.5336931 92.5446,55.6243861 C92.5446,41.3614158 80.6906645,29.7569604 66.1211161,29.7569604 C51.550471,29.7569604 39.6965355,41.3614158 39.6965355,55.6243861 C39.6965355,62.5336931 42.4450516,69.0291386 47.436471,73.9159703 C47.926729,74.3962673 48.1976323,75.0344851 48.1976323,75.713 C48.1976323,76.3915149 47.926729,77.0297327 47.436471,77.5100297 C46.9451161,77.9903267 46.2925355,78.2549802 45.5971806,78.2549802 C44.9018258,78.2549802 44.2492452,77.9903267 43.7578903,77.5100297 C37.7859548,71.662604 34.496729,63.8907228 34.496729,55.6243861 C34.496729,38.5569604 48.6835032,24.6719109 66.1211161,24.6719109 C83.558729,24.6719109 97.7444065,38.5569604 97.7444065,55.6243861 C97.7444065,63.8907228 94.4551806,71.662604 88.4832452,77.5100297 C87.9918903,77.9903267 87.3393097,78.2549802 86.6439548,78.2549802 Z M66.1206774,52.6195347 C63.7439677,52.6195347 61.8103548,54.513495 61.8103548,56.8409208 C61.8103548,57.9692376 62.2589355,59.0300297 63.0727419,59.8272574 C63.8876452,60.6244851 64.9701613,61.063396 66.1206774,61.063396 C67.2711935,61.063396 68.3537097,60.6244851 69.1686129,59.8272574 C69.9824194,59.0300297 70.431,57.9692376 70.431,56.8409208 C70.431,54.513495 68.4973871,52.6195347 66.1206774,52.6195347 Z M66.1206774,66.1473564 C63.5794516,66.1473564 61.1906774,65.1791386 59.3952581,63.4213168 C57.5987419,61.663495 56.6105484,59.3262673 56.6105484,56.8409208 C56.6105484,51.7101287 60.877,47.5344851 66.1206774,47.5344851 C67.701129,47.5344851 69.2662258,47.9222079 70.6459677,48.6540891 L70.7534516,48.7107228 L78.0053226,41.6108218 C78.4879032,41.1392376 79.1262258,40.8789406 79.8029355,40.8789406 C80.4796452,40.8789406 81.1179677,41.1392376 81.5994516,41.6108218 C82.6391935,42.6280495 82.6512581,44.2290396 81.6674516,45.2201287 L74.4287419,52.3058713 L74.4879677,52.4147822 C75.2359677,53.7652772 75.6308065,55.2954752 75.6308065,56.8409208 C75.6308065,59.3262673 74.6426129,61.663495 72.8460968,63.4213168 C71.0506774,65.1791386 68.6619032,66.1473564 66.1206774,66.1473564 Z" id="Combined-Shape" fill="#FEFEFE"></path>
                        <path d="M123.660892,15.8154924 C124.709476,14.7931351 125.362799,13.3723391 125.372156,11.7998913 C128.929726,13.1671809 131.624579,15.1669546 133.161802,17.8112505 C135.337506,21.5531758 135.566874,26.1029298 134.130374,31.1437204 C132.935811,30.3882056 131.517523,29.950495 129.996258,29.950495 C129.988373,29.950495 129.98049,29.9505068 129.972611,29.9505303 C131.067219,26.0707489 130.921738,22.6712127 129.362422,19.9893952 C128.338276,18.2276818 126.364045,16.8249029 123.660892,15.8154924 Z M114.421834,14.0486467 C109.857228,13.7544896 104.562838,14.0532265 98.902635,15.0015257 C97.7080545,15.2016634 96.5762702,14.4022763 96.374724,13.2160446 C96.1731777,12.029813 96.978191,10.9059387 98.1727715,10.705801 C103.979406,9.73296888 109.47151,9.38055673 114.346501,9.66091592 C114.084617,10.31172 113.940581,11.021957 113.940581,11.7656436 C113.940581,12.5778201 114.112369,13.3501024 114.421834,14.0486467 Z M123.70418,42.0213566 C124.557988,43.2180316 125.749306,44.1604856 127.140436,44.7119851 C118.355443,56.9830093 102.807169,70.3166054 83.380278,81.4545141 C80.5797798,83.0600709 77.7797708,84.5734944 74.9930875,85.9922333 C74.6544759,84.5185263 73.8874389,83.2067997 72.8289861,82.1931056 C75.6023966,80.7876041 78.3931753,79.2833059 81.1867224,77.6817343 C100.338191,66.7017316 115.437179,53.5486109 123.70418,42.0213566 Z M59.7868174,88.1433046 C59.8749658,89.6813471 60.420526,91.0977967 61.2905279,92.2606126 C33.8163136,103.399067 9.90844904,104.349023 2.9855192,92.4434546 C2.48855715,91.5885921 2.08331809,90.7036342 1.76859752,89.7897448 C2.21194638,89.8856769 2.67236488,89.9362178 3.14467097,89.9362178 C4.26114494,89.9362178 5.31128544,89.6538051 6.22658801,89.1570052 C6.39001405,89.536714 6.57612263,89.9061778 6.78486063,90.265244 C12.2605027,99.6818686 34.171385,98.5317962 59.7868174,88.1433046 Z M2.36845545,77.2004613 C4.0411623,72.5373847 7.16847557,67.4635366 11.6660059,62.0604559 C12.4378399,61.1332177 13.8205005,61.0028648 14.7542647,61.7693046 C15.6880289,62.5357444 15.8192992,63.9087416 15.0474651,64.8359798 C10.9578151,69.749056 8.17275496,74.2241274 6.67032308,78.1980588 C5.65760541,77.5382336 4.44621166,77.1544356 3.14467097,77.1544356 C2.88195718,77.1544356 2.6229214,77.1700729 2.36845545,77.2004613 Z M134.411871,37.6025743 C134.411871,40.0242873 132.435015,41.9873267 129.996258,41.9873267 C127.557501,41.9873267 125.580645,40.0242873 125.580645,37.6025743 C125.580645,35.1808612 127.557501,33.2178218 129.996258,33.2178218 C132.435015,33.2178218 134.411871,35.1808612 134.411871,37.6025743 Z M71.8957419,87.7015842 C71.8957419,90.1232972 69.9188864,92.0863366 67.480129,92.0863366 C65.0413717,92.0863366 63.0645161,90.1232972 63.0645161,87.7015842 C63.0645161,85.2798711 65.0413717,83.3168317 67.480129,83.3168317 C69.9188864,83.3168317 71.8957419,85.2798711 71.8957419,87.7015842 Z M122.081935,11.7656436 C122.081935,13.0956253 120.996108,14.1736634 119.656968,14.1736634 C118.316832,14.1736634 117.230903,13.0957256 117.230903,11.7656436 C117.230903,10.4355615 118.316832,9.35762376 119.656968,9.35762376 C120.996108,9.35762376 122.081935,10.4356618 122.081935,11.7656436 Z M6.29021935,83.5453267 C6.29021935,85.2700101 4.88149283,86.6688911 3.14467097,86.6688911 C1.40817477,86.6688911 0.000219354839,85.2703335 0.000219354839,83.5453267 C0.000219354839,81.82032 1.40817477,80.4217624 3.14467097,80.4217624 C4.88149283,80.4217624 6.29021935,81.8206434 6.29021935,83.5453267 Z" id="Combined-Shape" fill="#333F48" fill-rule="nonzero"></path>
                    </g>
                </g>
            </g>
        </g>
    </g>
</svg>