<?xml version="1.0" encoding="utf-8"?>
<!-- Generator: Adobe Illustrator 23.0.1, SVG Export Plug-In . SVG Version: 6.00 Build 0)  -->
<svg version="1.1" id="Layer_1" xmlns="http://www.w3.org/2000/svg" xmlns:xlink="http://www.w3.org/1999/xlink" x="0px" y="0px"
	 viewBox="0 0 125 113" style="enable-background:new 0 0 125 113;" xml:space="preserve">
<style type="text/css">
	.st0{fill:#FFFFFF;}
	.st1{fill:#3FAE29;}
	.st2{fill:#333E48;}
</style>
<path class="st0" d="M81.1,56.9c1.3-0.2,2.6-0.3,4-0.3c12.8,0,23.1,10.3,23.1,22.9s-10.4,22.9-23.1,22.9c-8.5,0-15.9-4.5-20-11.3
	c-0.3,0.6-0.5,0.9-0.6,0.9h-45C17,92,15,90,15,87.5V22.1c0-2.5,2-4.5,4.5-4.5h13c0.7-1.7,2.3-2.8,4.2-2.8h3.2
	c1.3-3.4,4.5-5.7,8.3-5.7s7,2.3,8.3,5.7h3.2c1.9,0,3.5,1.2,4.2,2.8h13c2.5,0,4.5,2,4.5,4.5v34.1C81.3,56.2,81.2,56.5,81.1,56.9"/>
<path class="st1" d="M79.8,72.5c-0.8,0-1.5-0.7-1.5-1.5v-4.4c0-0.8,0.7-1.5,1.5-1.5s1.5,0.7,1.5,1.5V71
	C81.3,71.8,80.6,72.5,79.8,72.5z"/>
<path class="st1" d="M89.5,72.5c-0.8,0-1.5-0.7-1.5-1.5v-4.4c0-0.8,0.7-1.5,1.5-1.5s1.5,0.7,1.5,1.5V71C91,71.8,90.3,72.5,89.5,72.5
	z"/>
<rect x="89.1" y="81.5" class="st1" width="4" height="4"/>
<rect x="89.1" y="75" class="st1" width="4" height="4"/>
<rect x="82.6" y="81.5" class="st1" width="4" height="4"/>
<rect x="82.6" y="75" class="st1" width="4" height="4"/>
<path class="st1" d="M30.3,70c-0.9,0-1.7-0.8-1.7-1.7c0-0.9,0.8-1.7,1.7-1.7h25.2c0.9,0,1.7,0.8,1.7,1.7c0,0.9-0.8,1.7-1.7,1.7H30.3
	z M30.3,41.1c-0.9,0-1.7-0.8-1.7-1.7s0.8-1.7,1.7-1.7h36.5c0.9,0,1.7,0.8,1.7,1.7s-0.8,1.7-1.7,1.7H30.3z M30.3,51.3
	c-0.9,0-1.7-0.8-1.7-1.7s0.8-1.7,1.7-1.7h36.5c0.9,0,1.7,0.8,1.7,1.7s-0.8,1.7-1.7,1.7H30.3z M30.3,60.6c-0.9,0-1.7-0.8-1.7-1.7
	s0.8-1.7,1.7-1.7h36.5c0.9,0,1.7,0.8,1.7,1.7s-0.8,1.7-1.7,1.7H30.3z"/>
<rect x="76.1" y="81.5" class="st1" width="4" height="4"/>
<rect x="76.1" y="75" class="st1" width="4" height="4"/>
<path class="st1" d="M95.1,91.7h-21c-1.9,0-3.5-1.6-3.5-3.5V71.4c0-1.9,1.6-3.5,3.5-3.5h21c1.9,0,3.5,1.6,3.5,3.5v16.8
	C98.6,90.1,97,91.7,95.1,91.7z M74.1,70.9c-0.3,0-0.5,0.2-0.5,0.5v16.8c0,0.3,0.2,0.5,0.5,0.5h21c0.3,0,0.5-0.2,0.5-0.5V71.4
	c0-0.3-0.2-0.5-0.5-0.5H74.1z"/>
<path class="st2" d="M63.9,92H19.5C17,92,15,90,15,87.5V22.1c0-2.5,2-4.5,4.5-4.5h13c0.7-1.7,2.3-2.8,4.2-2.8h3.2
	c1.3-3.4,4.5-5.7,8.3-5.7s7,2.3,8.3,5.7h3.2c1.9,0,3.5,1.2,4.2,2.8h13c2.5,0,4.5,2,4.5,4.5v33.1c1.2-0.2,2.4-0.3,3.6-0.3
	c13.6,0,24.6,10.9,24.6,24.4s-11,24.4-24.6,24.4C76.1,103.8,68.2,99,63.9,92z M62.2,88.6c-1.2-2.9-1.8-6-1.8-9.2
	C60.4,68.3,67.8,59,78,56V22.1c0-0.6-0.5-1.2-1.2-1.2H64.2v6.8c0,0.9-0.8,1.7-1.7,1.7H33.9c-0.9,0-1.7-0.8-1.7-1.7v-6.8H19.5
	c-0.7,0-1.2,0.5-1.2,1.2v65.4c0,0.6,0.5,1.2,1.2,1.2L62.2,88.6L62.2,88.6z M60.8,19.2c0-0.6-0.5-1.2-1.2-1.2h-4.4
	c-0.8,0-1.5-0.6-1.6-1.3c-0.5-2.5-2.8-4.3-5.4-4.3c-2.6,0-4.8,1.8-5.4,4.3c-0.2,0.8-0.8,1.4-1.6,1.4h-4.4c-0.7,0-1.2,0.5-1.2,1.2
	v6.8h25.3L60.8,19.2C60.9,19.2,60.8,19.2,60.8,19.2z M85,100.4c11.7,0,21.2-9.4,21.2-21.1s-9.5-21-21.2-21s-21.2,9.4-21.2,21.1
	S73.3,100.4,85,100.4z"/>
</svg>
