<?xml version="1.0" encoding="UTF-8"?>
<svg width="94px" height="120px" viewBox="0 0 94 120" version="1.1" xmlns="http://www.w3.org/2000/svg" xmlns:xlink="http://www.w3.org/1999/xlink">
    <title>illustration_support_4_existing_customers</title>
    <defs>
        <linearGradient x1="66.8176388%" y1="22.9724669%" x2="8.39299386%" y2="30.6283508%" id="linearGradient-1">
            <stop stop-color="#AFAFAF" offset="0%"></stop>
            <stop stop-color="#FFFFFF" offset="100%"></stop>
        </linearGradient>
    </defs>
    <g id="Support---phase-2" stroke="none" stroke-width="1" fill="none" fill-rule="evenodd">
        <g id="illustration_support_4_existing_customers" fill-rule="nonzero">
            <path d="M40,104.200334 C42.8029177,107.964395 43.5742389,112.290833 44,116.264067 C46,119.28 46.0428056,118.135664 49,119.28 L92.859375,91.8277588 C87.5224543,89.0606652 70.7588294,78.3046494 46.0290282,66.28 C30.4216379,75.2323616 59.2997947,65.2884434 40,76.0516237 C41.0928634,84.264641 34.9688449,97.5580022 40,104.200334 Z" id="Path" fill="url(#linearGradient-1)" style="mix-blend-mode: multiply;"></path>
            <path d="M74.4008759,84.427346 C74.4008759,84.427346 69.1051466,98.56 37.9888805,98.56 C-1.98102243,98.56 -10.0120217,35.7910199 15.7673831,13.1600271 C16.9109977,12.1519819 18.120262,11.2229831 19.3869884,10.3793207 C24.8711722,6.72459509 31.5995856,5.51914452 37.9888805,7.04663884 C59.9327377,12.0977348 48.0661907,35.3848493 57.8452948,43.0187737 C67.6243989,50.6526982 88.1492063,57.08894 74.4008759,84.427346 Z" id="Path" fill="#3FA4C5"></path>
            <path d="M41.2627013,18.6775025 C41.2627013,18.6775025 24.9933589,16.15426 23.0353859,34.4931863 C21.0774129,52.8321127 27.3954082,65.0345133 37.4174039,66.9925495 C47.4393996,68.9505856 63.880317,56.6270694 59.8028887,47.7553488 C55.7254605,38.8836282 41.2627013,18.6775025 41.2627013,18.6775025 Z" id="Path" fill="#007BA4"></path>
            <path d="M48.31872,103.719027 C48.4535415,103.917511 49.5995244,108.284175 50.1388104,109.527316 C50.6780965,110.770457 52.0648321,117.101074 48.31872,118.27109 C44.572608,119.441105 42.8584487,112.326995 42.617696,109.851159 C42.4874347,107.582972 42.4874347,105.308188 42.617696,103.04" id="Path" fill="#050C29"></path>
            <path d="M83.0149799,84.0378333 C83.2102824,84.6119507 83.5175182,85.1488741 83.9217899,85.6225688 C84.3857393,85.9801006 89.5102704,87.5551731 90.6279665,88.1156284 C91.7456626,88.6760836 93.2534978,90.2994712 93.0637004,91.6909463 C92.8739029,93.0824214 77.2472463,91.101502 74.6533478,89.3524951 C74.6533478,89.3524951 74.0944998,87.7870856 75.2649174,83.6609755 C76.435335,79.5348653 83.0149799,84.0378333 83.0149799,84.0378333 Z" id="Path" fill="#050C29"></path>
            <path d="M51.249834,44.1897649 C51.249834,44.1897649 74.3752183,43.5445831 80.5273869,48.2618145 C86.6795554,52.9790459 85.6342841,82.1074211 84.6487425,83.2920173 C83.663201,84.4766136 72.4140902,84.4448833 71.5679181,83.1439428 L73.8575602,58.7116455 C73.8575602,58.7116455 50.8815003,57.2626305 49.8461839,57.156863 C48.8108675,57.0510955 48.5122185,60.0020093 49.1393813,60.6366144 C49.7665442,61.2712195 51.7674922,65.0682735 51.827222,67.0672797 C51.8869518,69.0662858 51.3692936,103.990721 51.3692936,103.990721 C51.3692936,103.990721 41.9917163,106.76183 39.0749114,102.933046 C39.0749114,102.933046 39.3835154,79.209391 39.8912186,72.6729583 C39.8912186,72.6729583 31.9272464,62.6038903 30.7525604,56.2366856 C30.0500434,52.3368417 30.2932786,48.3111938 31.459363,44.5387978" id="Path" fill="#333E48"></path>
            <path d="M49.58016,44.9360101 C49.58016,44.9360101 51.6024125,17.622115 48.7544383,14.4199364 C45.906464,11.2177578 37.821892,13.3836327 34.4635281,15.5909597 C31.1051642,17.7982866 26.7158132,19.2283858 25.2765144,25.0420499 C23.5003584,32.0992784 30.7887226,48.0998083 32.6873721,49.0635708 C34.5860216,50.0273333 44.1496141,51.4543607 49.58016,44.9360101 Z" id="Path" fill="#9E1B32"></path>
            <path d="M41.24,13.4009939 C41.24,13.4009939 47.5669962,7.72875768 51.3526489,13.4009939 C55.1383016,19.07323 54.8324968,25.4801558 56.4669708,28.8834975 C58.1963498,32.4705116 66.2,47.9638196 66.2,47.9638196 C66.2,47.9638196 61.0443093,49.0982668 59.8,52.48 C58.5556907,55.8617332 48.8956654,36.4248706 47.4404563,31.6818007" id="Path" fill="#9E1B32"></path>
            <path d="M37.1438836,15.36 C37.1438836,15.36 27.5456842,20.0759157 26.090295,26.663719 C25.0862607,31.1934801 27.9325598,48.5782482 29.2497791,50.036459 C30.5669984,51.4946698 40.3146603,59.2028809 41.8253174,59.2028809 C41.8253174,59.2028809 44.5975342,55.0635986 47,54.4 C47,54.4 36.3939434,46.226328 36.44,45.0059814 C36.4860566,43.7856348 32.7592934,31.2865574 32.7592934,31.2865574" id="Path" fill="#9E1B32"></path>
            <path d="M50.5611137,5.02488509 C50.9821636,4.28346351 51.0235996,3.38703772 50.6727239,2.61031087 C50.3218481,1.83358403 49.6204966,1.26916758 48.7835934,1.09002282 C48.067127,0.897994565 47.3097616,0.919316236 46.6053605,1.15134535 C45.9049284,0.416313638 44.9315431,0 43.9133935,0 C42.8952438,0 41.9218585,0.416313638 41.2214264,1.15134535 C40.8279977,1.59516552 40.5213508,2.10816624 40.3172542,2.66396773 C38.2623175,2.55154309 36.104634,3.13410712 35.2621099,5.30083647 C34.090796,8.29541997 35.5806251,11.6272774 37.0088061,14.2539257 C37.4903119,15.0339201 38.3878472,15.4594036 39.3001782,15.3401684 C40.2125092,15.2209331 40.9690908,14.5792681 41.2317011,13.7020229 L41.4577441,12.8843892 C42.3630686,12.6102327 43.1095594,11.9679282 43.5126808,11.1162563 C43.6040942,10.921088 43.6697129,10.7149654 43.7078998,10.503031 C43.8618749,10.5124387 44.0162854,10.5124387 44.1702605,10.503031 L44.3038314,10.6256761 C44.5658789,11.6256056 45.4740562,12.3230998 46.5128884,12.322266 C48.5678251,12.199621 50.6227618,11.7499224 51.6502301,9.85914446 C52.5705606,8.20592779 52.102713,6.12929337 50.5611137,5.02488509 L50.5611137,5.02488509 Z" id="Path" fill="#010E20"></path>
            <path d="M49.4956901,8.32104138 C49.6232312,8.20933676 49.9175566,17.1177795 46.2384885,18.8771271 C42.5594205,20.6364747 38.5565944,14.6323519 38.5565944,14.6323519 C38.5565944,14.6323519 36.5944248,12.7706084 37.7815374,11.8397366 C38.96865,10.9088649 39.8025721,12.4820381 39.8025721,12.4820381 C39.8025721,12.4820381 40.4500881,13.5618494 40.911198,13.5804668 C41.3723078,13.5990842 40.518764,10.6575295 41.9707696,9.72665773 C43.4227751,8.79578597 47.3961686,10.1734762 49.4956901,8.32104138 Z" id="Path" fill="#B47D50"></path>
            <polygon id="Path" fill="#76C0D8" points="43.16 60.4246486 67.5171896 48 82.84 57.0663784 60.6732805 69.12"></polygon>
            <polygon id="Path" fill="#007298" points="61.7776945 55.2144522 60.67 69.12 82.84 57.07 86.04 41.52"></polygon>
            <path d="M54.4112295,57.1345854 C52.5920572,56.4318648 50.7247749,55.8614121 48.8238709,55.4276533 C47.9153855,54.8821333 47.0762465,54.2281397 46.3248375,53.48 C45.1462541,54.935269 43.9676706,56.40148 42.8,57.856749 C43.431743,58.6763033 44.1651844,59.4116981 44.9825619,60.0451235 C46.9468677,61.3800319 48.420097,60.9751826 48.9657375,61.4894507 C49.511378,62.0037187 51.9449345,64.1702094 52.3487085,63.5902902 C52.7524824,63.0103709 51.0719097,61.4785088 51.3338172,61.4019157 C51.5957246,61.3253226 54.323927,64.1373838 54.6076601,63.6668833 C54.8913931,63.1963828 52.6979184,60.4827984 52.6979184,60.4827984 C54.6731369,62.922836 56.1136278,63.4699296 56.4191865,63.0103709 C56.7247452,62.5508123 54.4876192,59.7278092 54.2366246,59.3886111 C55.6334642,61.292497 57.3249497,62.2006724 57.5104675,61.71923 C57.6959852,61.2377876 55.1205621,57.6050859 54.4112295,57.1345854 Z" id="Path" fill="#B47D50"></path>
            <path d="M61.6580706,46.7499095 C62.7316412,45.9493964 63.5700748,45.493486 64.8969727,45.44 C65.7559716,46.7256562 66.9941957,48.0548596 67.7224866,49.4225473 C68.0318956,50.1091934 68.2897364,52.8663415 67.9803274,53.0247983 C67.6899082,53.1015557 67.3832988,53.0830824 67.1036686,52.9719794 C67.1036686,52.9719794 67.1552368,53.6586255 66.587987,53.6586255 C66.0207372,53.6586255 65.969169,53.3945308 65.969169,53.3945308 C65.969169,53.3945308 65.7628964,54.4509094 65.2987829,54.5565473 C64.9640437,54.6582462 64.6103936,54.6763576 64.2674196,54.6093662 C64.2674196,54.6093662 63.7001698,55.8242016 63.13292,55.6657448 C62.5656703,55.507288 63.0813519,53.0142345 63.13292,52.496609 C63.1844882,51.9789835 62.8235111,50.0035555 62.2562613,49.8979177 C61.6890115,49.7922798 61.4311707,51.4296667 61.224898,52.0106749 C61.0186254,52.5916831 61.2764662,54.7150041 60.6679618,54.767823 C60.0594575,54.820642 60.0388303,54.2396337 59.9356939,53.4473498 C59.8325576,52.6550658 59.5747168,49.5810041 60.2451029,48.7887202 C60.915489,47.9964362 61.534307,46.8027284 61.6580706,46.7499095 Z" id="Path" fill="#B47D50"></path>
            <path d="M46.8554627,53.5537989 C44.1825916,50.9875794 41.4261933,48.5443523 38.5862678,46.2241176 C38.6679659,46.1347677 38.7079986,46.0152796 38.6965237,45.8950298 C38.4559653,41.8595499 38.3056163,37.8207459 38.2454767,33.7786178 C38.2454767,33.5032388 38.0210982,33.28 37.7443134,33.28 C37.4675285,33.28 37.2431501,33.5032388 37.2431501,33.7786178 C37.2966075,37.6811329 37.4402743,41.5836481 37.6741505,45.4861632 L37.0025917,44.947656 C36.5014283,44.5487618 35.7897764,45.2567991 36.2909397,45.6556933 C39.7165646,48.3563526 43.0017662,51.228785 46.1337875,54.2618362 C46.564788,54.7006198 47.316533,53.9925826 46.8554627,53.5537989 Z" id="Path" fill="#4179B6"></path>
            <path d="M50.2,21.9238303 C50.2,21.2787232 49.784,21.2787232 49.784,21.9238303 C49.5898667,29.3156825 49.52192,36.7444939 49.58016,44.2102646 C49.5776549,44.2537328 49.5776549,44.2978337 49.58016,44.341302 L49.58016,44.9360101 C49.58016,45.214356 49.6732848,45.44 49.78816,45.44 C49.9030352,45.44 49.99616,45.214356 49.99616,44.9360101 C49.9296,37.2619236 49.9975467,29.591197 50.2,21.9238303 Z" id="Path" fill="#4179B6"></path>
        </g>
    </g>
</svg>