<svg width="176" height="34" viewBox="0 0 176 34" fill="none" xmlns="http://www.w3.org/2000/svg">
<path d="M22.8879 25.12V15.5169C22.8879 14.3251 22.7129 13.4227 22.3803 12.8267C22.0477 12.2308 21.5051 11.9243 20.7874 11.9243C19.8246 11.9243 19.1244 12.3159 18.6693 13.1332C18.2142 13.9335 18.0041 15.1934 18.0041 16.8961V25.12H11.7199V15.5169C11.7199 14.3251 11.5623 13.4227 11.2297 12.8267C10.9146 12.2308 10.3895 11.9243 9.6718 11.9243C8.69153 11.9243 7.97383 12.35 7.51871 13.2013C7.06358 14.0526 6.85352 15.4488 6.85352 17.3728V25.103H0.586792V7.46332H5.3131L6.10081 9.64274H6.46842C6.95855 8.82546 7.64124 8.2125 8.569 7.78683C9.47925 7.36116 10.5295 7.13981 11.6849 7.13981C14.3106 7.13981 16.1486 7.90602 17.1989 9.45544H17.689C18.1967 8.7233 18.9144 8.16142 19.8246 7.75278C20.7349 7.34414 21.7501 7.13981 22.8529 7.13981C25.006 7.13981 26.5815 7.68467 27.6143 8.74032C28.647 9.813 29.1547 11.4305 29.1547 13.627V25.12H22.8879Z" fill="#9E1B32"/>
<path d="M37.4345 7.46332L40.5153 17.5942C40.6554 18.122 40.7604 18.769 40.8129 19.5182H40.9354C41.023 18.8031 41.1455 18.1731 41.3205 17.6282L44.4714 7.46332H50.8607L43.6837 26.2437C42.7559 28.6275 41.6356 30.3301 40.2878 31.3177C38.9399 32.3052 37.1894 32.799 35.0363 32.799C34.1961 32.799 33.3558 32.7139 32.4631 32.5266V27.7421C33.0232 27.8613 33.6709 27.9294 34.4061 27.9294C34.9663 27.9294 35.4389 27.8272 35.859 27.6229C36.2791 27.4186 36.6292 27.1121 36.9443 26.7375C37.2594 26.3629 37.592 25.7329 37.9421 24.8816L30.8001 7.46332H37.4345Z" fill="#9E1B32"/>
<path d="M67.7528 25.12H54.5017V2.32127H67.7528V5.4712H58.3352V11.6689H67.1752V14.7848H58.3352V21.936H67.7528V25.12Z" fill="#9E1B32"/>
<path d="M77.5555 25.4265C75.3674 25.4265 73.652 24.6432 72.4091 23.0768C71.1663 21.5103 70.5536 19.3309 70.5536 16.5215C70.5536 13.7121 71.1838 11.5157 72.4441 9.93219C73.7045 8.34871 75.4375 7.54846 77.6606 7.54846C78.7634 7.54846 79.7787 7.75278 80.6539 8.14439C81.5291 8.536 82.3169 9.20004 83.0171 10.1195H83.1396L83.5597 7.85494H86.6931V32.765H82.912V25.4605C82.912 25.0008 82.9295 24.5241 82.982 24.0133C83.0171 23.5025 83.0696 23.1108 83.0871 22.8384H82.877C81.7742 24.5581 79.9887 25.4094 77.573 25.4094L77.5555 25.4265ZM78.6233 22.4979C80.1988 22.4979 81.3366 22.0552 82.0368 21.1698C82.7195 20.2844 83.0696 18.9393 83.0696 17.1345V16.5556C83.0696 14.4272 82.7195 12.8948 82.0018 11.9584C81.2841 11.0219 80.1463 10.5452 78.5708 10.5452C77.2229 10.5452 76.2077 11.073 75.49 12.1116C74.7898 13.1502 74.4397 14.6486 74.4397 16.5896C74.4397 20.5228 75.8401 22.4979 78.6408 22.4979H78.6233Z" fill="#9E1B32"/>
<path d="M103.568 25.12L103.043 22.8554H102.85C102.325 23.6557 101.572 24.2857 100.609 24.7454C99.6466 25.2051 98.5438 25.4265 97.301 25.4265C95.1479 25.4265 93.555 24.8986 92.4872 23.86C91.4194 22.8214 90.8942 21.2549 90.8942 19.1436V7.87196H94.6928V18.4966C94.6928 19.8077 94.9729 20.8122 95.533 21.4763C96.0932 22.1403 96.9509 22.4638 98.1412 22.4638C99.7167 22.4638 100.889 22.0041 101.625 21.0847C102.36 20.1652 102.745 18.6158 102.745 16.4534V7.85494H106.526V25.103H103.568V25.12Z" fill="#9E1B32"/>
<path d="M111.515 3.30881C111.515 2.6618 111.707 2.151 112.075 1.79344C112.443 1.43588 112.968 1.26561 113.65 1.26561C114.333 1.26561 114.823 1.43588 115.191 1.79344C115.559 2.151 115.751 2.64477 115.751 3.30881C115.751 3.97285 115.559 4.43257 115.191 4.79013C114.823 5.14769 114.298 5.33499 113.65 5.33499C113.003 5.33499 112.443 5.14769 112.075 4.79013C111.707 4.43257 111.515 3.9388 111.515 3.30881ZM115.506 25.12H111.742V7.87196H115.506V25.12Z" fill="#9E1B32"/>
<path d="M129.632 10.6473H125.309V25.12H121.528V10.6473H118.604V8.92762L121.528 7.80386V6.68009C121.528 4.63689 122.018 3.13855 122.998 2.151C123.978 1.16345 125.484 0.669678 127.497 0.669678C128.827 0.669678 130.123 0.891025 131.4 1.31669L130.403 4.09204C129.475 3.80259 128.582 3.64935 127.742 3.64935C126.902 3.64935 126.271 3.90475 125.869 4.41555C125.484 4.92635 125.291 5.70957 125.291 6.73117V7.85494H129.615V10.6303L129.632 10.6473Z" fill="#9E1B32"/>
<path d="M143.076 25.12L142.323 22.7192H142.201C141.343 23.7749 140.485 24.49 139.628 24.8646C138.752 25.2392 137.65 25.4265 136.302 25.4265C134.569 25.4265 133.203 24.9667 132.223 24.0473C131.243 23.1279 130.753 21.8338 130.753 20.1652C130.753 18.3944 131.435 17.0493 132.783 16.1469C134.131 15.2445 136.214 14.7507 138.98 14.6656L142.043 14.5805V13.661C142.043 12.5543 141.781 11.737 141.256 11.1922C140.73 10.6473 139.908 10.3749 138.787 10.3749C137.877 10.3749 137.002 10.5111 136.179 10.7665C135.356 11.0219 134.551 11.3284 133.781 11.6859L132.556 9.06383C133.518 8.57006 134.569 8.19547 135.707 7.94007C136.844 7.68467 137.93 7.56548 138.945 7.56548C141.203 7.56548 142.901 8.04223 144.056 8.99572C145.212 9.94922 145.772 11.4476 145.772 13.5078V25.12H143.076ZM137.475 22.6171C138.84 22.6171 139.943 22.2425 140.766 21.4933C141.588 20.7441 142.008 19.7055 142.008 18.3604V16.862L139.733 16.9472C137.965 17.0153 136.669 17.3047 135.864 17.8155C135.059 18.3263 134.656 19.1096 134.656 20.1822C134.656 20.9485 134.884 21.5444 135.356 21.9701C135.829 22.3957 136.529 22.6 137.475 22.6V22.6171Z" fill="#9E1B32"/>
<path d="M154.314 16.3172L148.363 7.88899H152.651L156.695 13.9164L160.774 7.88899H165.045L159.076 16.3172L165.342 25.12H161.071L156.695 18.6669L152.336 25.12H148.065L154.297 16.3172H154.314Z" fill="#9E1B32"/>
<path d="M169.193 12.1967H168.441V8.50195H167.145V7.87196H170.489V8.50195H169.193V12.1967ZM172.887 12.1967L171.644 8.84248H171.592L171.627 9.60868V12.1967H170.891V7.87196H172.047L173.254 11.2262L174.515 7.87196H175.618V12.1967H174.83V9.67679L174.865 8.85951H174.812L173.517 12.1967H172.869H172.887Z" fill="#9E1B32"/>
</svg>
